<?xml version="1.0" standalone="no"?>
<!DOCTYPE svg PUBLIC "-//W3C//DTD SVG 20010904//EN"
 "http://www.w3.org/TR/2001/REC-SVG-20010904/DTD/svg10.dtd">
<svg version="1.0" xmlns="http://www.w3.org/2000/svg"
 width="1024.000000pt" height="1024.000000pt" viewBox="0 0 1024.000000 1024.000000"
 preserveAspectRatio="xMidYMid meet">

<g transform="translate(0.000000,1024.000000) scale(0.100000,-0.100000)"
fill="#000000" stroke="none">
<path d="M4976 9225 c-8 -8 -21 -15 -30 -15 -8 0 -18 -9 -21 -20 -3 -11 -15
-20 -26 -20 -15 0 -19 -7 -19 -33 0 -18 -5 -38 -12 -45 -8 -8 -8 -15 1 -26 8
-10 9 -16 1 -21 -5 -3 -10 -17 -10 -30 0 -13 -4 -27 -10 -30 -5 -3 -10 -18
-10 -32 0 -15 -11 -45 -24 -67 -13 -23 -26 -53 -29 -67 -4 -15 -15 -36 -24
-48 l-18 -22 -60 59 c-71 70 -126 135 -140 165 -5 11 -19 30 -30 42 -11 12
-25 29 -30 39 -9 15 -18 17 -53 11 -27 -4 -46 -13 -49 -23 -3 -10 -11 -24 -18
-32 -7 -8 -15 -37 -19 -63 -5 -43 -4 -49 17 -57 12 -5 16 -9 10 -9 -16 -1 -17
-23 -1 -39 6 -6 12 -33 13 -60 1 -26 5 -54 9 -60 4 -7 10 -27 13 -45 8 -54 10
-61 20 -87 6 -14 11 -41 11 -60 1 -19 8 -56 16 -82 13 -44 13 -50 -5 -72 -10
-13 -19 -29 -19 -34 0 -6 -9 -14 -20 -17 -11 -3 -48 -33 -82 -66 -35 -32 -67
-59 -73 -59 -5 -1 -19 -15 -30 -33 -11 -18 -27 -32 -35 -32 -8 0 -24 -9 -36
-20 -52 -49 -90 -75 -107 -75 -15 0 -17 -5 -12 -30 6 -29 5 -30 -29 -30 -29 0
-44 -8 -77 -42 -35 -38 -40 -47 -35 -78 3 -22 2 -30 -3 -21 -10 16 -39 8 -47
-14 -3 -8 1 -22 10 -30 9 -9 16 -25 16 -36 0 -10 7 -19 15 -19 9 0 15 -9 15
-22 0 -20 -1 -20 -20 -3 -22 20 -53 14 -44 -9 4 -9 -8 -30 -30 -52 -25 -26
-36 -32 -36 -21 0 21 -19 22 -26 2 -10 -26 -101 -115 -117 -115 -8 0 -18 -11
-21 -25 -4 -14 -15 -29 -25 -33 -31 -12 -198 -166 -211 -194 -8 -17 -23 -29
-42 -33 -16 -4 -32 -14 -35 -23 -4 -10 -12 -21 -20 -25 -7 -4 -13 -14 -13 -22
0 -11 -8 -13 -29 -9 -25 5 -32 2 -45 -25 -12 -22 -24 -31 -41 -31 -15 0 -26
-7 -30 -20 -6 -18 -16 -24 -36 -22 -4 1 -17 -12 -29 -28 -18 -23 -28 -28 -50
-23 -22 4 -29 1 -35 -16 -4 -15 -15 -21 -35 -21 -16 0 -30 -4 -32 -8 -1 -5
-21 -15 -43 -24 -30 -12 -41 -22 -43 -41 -4 -31 14 -67 32 -67 20 0 27 -26 20
-69 -4 -27 -2 -40 10 -50 12 -10 14 -23 10 -52 -4 -24 -2 -44 5 -53 7 -8 11
-23 9 -33 -1 -10 0 -22 4 -28 10 -17 39 -157 34 -163 -3 -2 0 -14 5 -25 6 -11
13 -49 16 -86 3 -36 11 -74 19 -85 8 -11 14 -28 14 -38 0 -10 5 -18 11 -18 7
0 9 -9 5 -23 -3 -13 -1 -39 4 -58 5 -19 11 -56 13 -84 3 -27 11 -66 20 -86 14
-34 19 -37 64 -41 26 -2 60 0 74 6 21 8 32 5 60 -17 19 -14 48 -29 64 -33 17
-3 37 -12 45 -19 8 -6 36 -24 61 -38 26 -15 59 -41 74 -59 15 -18 34 -33 43
-35 9 -1 18 -7 20 -12 5 -16 28 -13 42 4 7 8 16 13 20 10 5 -3 15 0 22 7 8 7
23 19 33 26 11 7 34 21 50 32 17 11 44 24 62 29 18 5 45 18 60 29 15 10 45 25
65 31 21 7 40 17 43 22 4 5 24 9 45 9 21 0 42 5 45 10 4 6 12 10 18 9 78 -10
86 7 80 163 -6 129 -5 269 1 275 2 2 29 10 60 18 32 9 68 22 79 30 12 8 31 15
44 15 12 0 28 7 37 15 8 8 21 15 30 15 8 0 28 11 44 25 28 24 31 24 47 8 14
-13 21 -14 36 -5 18 11 78 11 249 -3 30 -2 63 -4 73 -5 11 0 17 -8 17 -23 0
-13 5 -28 11 -34 7 -7 7 -13 0 -17 -5 -4 -8 -13 -5 -21 4 -8 -5 -28 -19 -45
-14 -16 -39 -54 -57 -85 -17 -30 -35 -55 -40 -55 -4 0 -13 -15 -20 -32 -7 -18
-23 -46 -35 -63 -12 -16 -32 -49 -44 -72 -12 -24 -28 -43 -36 -43 -8 0 -15 -7
-15 -16 0 -9 -11 -25 -25 -36 -14 -11 -25 -25 -25 -31 0 -7 -18 -36 -40 -65
-22 -29 -40 -59 -40 -67 0 -8 -11 -22 -25 -31 -15 -10 -25 -26 -25 -41 0 -19
-4 -23 -18 -19 -13 5 -27 -6 -51 -40 -18 -26 -30 -53 -27 -60 3 -8 -1 -14 -8
-14 -7 0 -25 -19 -40 -42 -15 -24 -45 -56 -66 -72 -22 -16 -42 -38 -46 -48 -3
-9 -16 -26 -28 -36 -13 -10 -33 -37 -45 -60 -12 -24 -28 -45 -36 -49 -8 -3
-15 -11 -15 -19 0 -7 -11 -21 -25 -30 -14 -9 -37 -36 -51 -60 -14 -24 -34 -46
-45 -49 -10 -4 -19 -15 -19 -25 0 -12 -8 -20 -22 -22 -14 -2 -22 -9 -21 -18 2
-9 -27 -44 -63 -79 -36 -35 -63 -69 -60 -76 3 -8 -5 -16 -18 -19 -21 -5 -60
-65 -61 -94 0 -8 -8 -19 -18 -26 -9 -7 -17 -21 -17 -31 0 -10 -5 -15 -13 -12
-18 7 -60 -39 -53 -59 4 -10 -4 -21 -24 -32 -16 -9 -30 -25 -30 -34 0 -9 -8
-19 -18 -22 -10 -3 -25 -19 -35 -35 -10 -17 -27 -33 -38 -36 -11 -4 -22 -18
-25 -34 -3 -15 -15 -31 -27 -36 -24 -11 -33 -37 -21 -63 4 -9 8 -21 8 -27 2
-25 37 -11 85 35 29 27 56 50 61 50 5 0 12 -9 15 -20 3 -11 10 -20 15 -20 4 0
33 -21 64 -46 34 -28 62 -44 71 -40 10 3 15 -1 15 -12 0 -10 15 -29 33 -42 17
-13 43 -34 57 -47 48 -46 131 -113 139 -113 5 0 19 -16 32 -35 14 -22 35 -38
52 -42 26 -5 39 -33 16 -33 -8 0 -8 -4 0 -14 8 -10 9 -21 1 -42 -7 -17 -9 -53
-5 -84 10 -91 9 -208 -2 -222 -5 -7 -15 -32 -21 -54 -15 -51 -50 -97 -68 -90
-9 3 -19 -7 -28 -27 -7 -19 -46 -67 -85 -108 -59 -60 -71 -79 -67 -99 4 -23 1
-25 -27 -25 -25 0 -31 -4 -29 -17 2 -15 -1 -16 -21 -9 -26 10 -53 -1 -43 -17
4 -6 -7 -18 -24 -27 -16 -8 -30 -23 -30 -33 -1 -24 -22 -50 -37 -45 -7 3 -16
-2 -19 -11 -3 -8 -21 -20 -39 -26 -40 -13 -51 -45 -24 -68 10 -9 19 -24 19
-33 0 -22 -49 -62 -67 -55 -22 9 -43 -5 -43 -29 0 -29 26 -56 46 -48 9 3 21
-3 30 -15 8 -12 21 -19 28 -16 8 3 30 -11 50 -30 19 -20 42 -36 50 -36 15 0
66 -55 66 -71 0 -12 109 -63 128 -60 6 1 12 -4 12 -11 0 -20 -17 -41 -34 -44
-8 -1 -26 -13 -38 -26 -13 -13 -36 -29 -53 -37 -16 -7 -35 -21 -42 -31 -7 -10
-28 -23 -46 -29 -19 -7 -40 -23 -47 -36 -7 -14 -19 -25 -26 -25 -11 0 -12 -35
-9 -168 3 -110 1 -176 -6 -194 -14 -34 -3 -97 18 -105 9 -3 24 -1 34 6 15 9
19 8 19 -3 0 -7 12 -21 26 -30 40 -27 28 -49 -26 -49 -25 1 -57 4 -73 8 -15 4
-33 3 -40 -2 -25 -18 -69 -34 -61 -22 5 9 0 10 -14 7 -12 -4 -22 -2 -22 3 0 5
-11 9 -25 9 -16 0 -25 -6 -25 -16 0 -12 -7 -14 -27 -10 -16 4 -42 2 -59 -3
-21 -6 -36 -5 -43 2 -7 7 -14 7 -25 -2 -9 -8 -28 -10 -50 -5 -20 3 -44 3 -53
-1 -27 -11 -216 -12 -231 -1 -8 6 -16 6 -23 -1 -5 -5 -32 -8 -58 -5 -30 2 -51
0 -55 -7 -4 -6 -12 -11 -17 -11 -6 0 -7 5 -4 10 3 6 -1 10 -9 10 -8 0 -17 -4
-21 -10 -4 -6 -15 -6 -31 0 -32 13 -30 13 -48 -6 -15 -14 -16 -14 -16 0 0 18
-25 22 -35 5 -4 -6 -22 -8 -46 -4 -32 6 -39 4 -39 -9 0 -13 -3 -14 -18 -5 -11
7 -31 9 -45 5 -22 -5 -27 -12 -27 -36 0 -31 39 -68 59 -55 6 3 19 1 29 -4 12
-7 22 -7 29 0 11 11 36 12 133 5 39 -3 70 0 78 7 10 8 16 7 22 -4 8 -12 13
-12 30 -1 16 10 25 10 35 2 8 -7 18 -9 23 -6 12 7 81 18 102 16 8 -1 71 -1
140 0 85 1 127 5 132 13 6 9 10 9 16 1 6 -9 96 -11 255 -5 9 0 25 0 35 0 9 0
73 1 142 2 69 1 160 1 203 -1 42 -2 80 0 84 3 9 10 61 8 65 -1 1 -5 28 -6 58
-3 30 3 125 5 210 5 262 -3 260 -2 260 -19 0 -20 -44 -37 -75 -29 -13 3 -32 1
-43 -5 -14 -7 -23 -8 -27 -1 -3 6 -17 7 -31 4 -13 -3 -81 -7 -151 -7 -71 -1
-130 -5 -134 -9 -3 -4 -20 -3 -39 2 -19 5 -36 6 -39 1 -4 -4 -22 -8 -41 -8
-96 -1 -313 -12 -331 -18 -11 -4 -27 -1 -35 6 -11 9 -20 9 -40 0 -15 -6 -98
-14 -192 -16 -173 -6 -182 -8 -182 -51 0 -23 32 -38 48 -22 5 5 19 4 35 -3 21
-9 33 -9 64 4 32 13 40 13 51 1 10 -11 18 -12 33 -4 11 6 29 8 40 5 11 -4 26
-1 34 5 11 9 19 9 28 2 11 -10 355 -9 437 1 19 2 40 1 45 -4 12 -9 109 8 113
20 2 5 23 2 47 -7 36 -13 51 -14 77 -5 18 6 65 9 103 8 39 -2 76 2 83 7 8 7
12 7 12 0 0 -15 43 -23 51 -10 6 9 14 9 33 0 20 -9 28 -8 41 4 8 9 15 11 15 5
0 -13 57 -15 64 -2 3 5 21 6 38 2 28 -6 56 -7 101 -2 4 1 7 8 7 16 0 14 3 14
23 1 28 -18 278 -20 289 -3 5 9 10 9 20 -1 16 -16 100 -16 116 0 10 10 15 10
22 -2 8 -12 13 -13 29 -3 13 8 22 9 26 3 3 -6 17 -7 30 -4 13 3 32 1 43 -5 14
-8 23 -8 27 -1 4 6 21 8 40 4 25 -4 35 -2 42 11 9 16 11 16 27 -1 16 -15 22
-16 53 -5 20 7 38 9 42 5 10 -14 44 -15 69 -2 17 9 25 9 34 0 20 -20 59 -15
65 9 l6 20 22 -21 c28 -26 141 -36 150 -13 4 13 9 13 31 -2 22 -14 30 -15 50
-5 19 11 26 11 39 0 12 -10 18 -10 31 1 13 10 17 10 26 -2 7 -10 11 -11 14 -2
4 9 11 9 30 1 20 -9 30 -9 47 1 16 10 22 11 25 2 3 -9 7 -9 18 0 10 8 14 8 14
1 0 -8 43 -10 138 -8 75 1 145 -1 155 -6 10 -5 17 -5 17 1 0 13 31 23 44 13
14 -10 187 -9 203 1 7 5 21 3 32 -3 14 -7 22 -7 27 1 4 8 9 7 15 -2 6 -10 13
-10 33 -1 14 6 26 8 26 4 0 -4 74 -7 165 -7 91 0 165 3 165 6 0 3 23 4 51 1
36 -3 54 -1 59 8 6 10 12 11 22 3 7 -5 58 -10 113 -9 94 1 99 2 105 23 6 25
22 19 33 -11 6 -15 14 -17 46 -12 26 4 41 2 43 -5 3 -9 10 -8 25 2 18 10 24
11 37 0 12 -11 19 -11 30 -2 11 9 20 9 35 2 14 -8 21 -8 24 2 3 9 9 9 26 0 27
-17 31 -16 31 3 0 12 4 14 13 7 14 -11 103 -10 130 1 10 5 17 4 17 -3 0 -6 11
-11 25 -11 14 0 25 4 25 9 0 4 10 6 23 4 88 -15 94 -15 101 3 10 26 -6 36 -55
35 -24 -1 -54 -1 -66 0 -88 2 -113 5 -113 13 0 4 -10 6 -22 3 -12 -4 -28 -1
-35 5 -10 8 -18 7 -32 -6 -16 -15 -20 -15 -50 0 -18 9 -36 13 -40 8 -8 -11
-81 -13 -81 -2 0 13 -48 9 -53 -4 -4 -10 -8 -10 -15 1 -8 12 -13 12 -25 2 -12
-9 -16 -9 -19 1 -4 10 -10 11 -29 1 -41 -19 -61 -24 -53 -12 4 8 -1 9 -15 4
-15 -4 -21 -2 -21 9 0 20 -52 25 -66 6 -9 -10 -15 -11 -25 -3 -12 9 -53 11
-84 3 -5 -1 -12 -1 -15 0 -16 7 -140 7 -140 -1 0 -5 -9 -9 -20 -9 -11 0 -20 4
-20 9 0 10 -9 11 -107 14 -29 1 -53 6 -53 10 0 4 -8 4 -17 -2 -14 -7 -21 -5
-30 12 -10 17 -12 18 -13 5 0 -25 -41 -34 -56 -13 -11 15 -14 14 -29 -16 -13
-24 -19 -29 -26 -18 -5 8 -9 23 -9 33 0 18 -1 18 -20 1 -10 -9 -26 -15 -34
-12 -8 3 -20 -1 -26 -9 -16 -18 -31 -18 -24 1 5 12 -10 14 -94 14 -56 -1 -106
2 -112 6 -6 4 -18 1 -26 -6 -11 -9 -18 -9 -26 -1 -6 6 -24 8 -39 5 -16 -3 -35
0 -43 6 -10 8 -16 9 -21 1 -4 -6 -21 -10 -38 -9 -18 1 -40 -2 -49 -6 -15 -6
-18 -2 -18 25 0 27 3 32 20 27 11 -3 23 -1 26 4 3 5 10 7 15 3 21 -12 388 -1
398 13 3 5 44 6 96 2 67 -5 97 -3 119 7 19 9 33 11 40 4 7 -5 53 -12 103 -15
72 -6 96 -4 121 9 21 11 38 13 54 7 22 -8 129 -6 156 4 7 2 23 0 37 -5 13 -5
26 -6 29 -1 3 4 56 7 118 6 82 -1 119 2 137 13 17 10 26 11 34 3 12 -12 93
-15 100 -3 3 4 63 6 134 6 85 -1 130 2 135 10 5 8 10 8 19 -1 13 -13 65 -7 86
9 7 6 14 5 18 -2 4 -7 16 -10 26 -7 11 3 19 1 19 -5 0 -10 42 0 50 13 6 9 29
7 47 -4 6 -4 14 -3 18 2 3 6 12 8 19 5 8 -3 16 2 19 13 4 15 5 15 6 2 1 -11
12 -18 32 -21 25 -4 30 -2 26 12 -4 16 -2 16 21 4 14 -7 30 -10 36 -6 20 12
58 13 72 1 11 -9 19 -8 34 6 19 17 21 17 33 2 14 -20 28 -12 45 27 7 16 16 25
20 21 7 -7 9 -12 11 -41 1 -13 8 -15 35 -10 20 4 36 2 38 -4 6 -19 48 20 48
46 0 21 -9 28 -32 26 -3 -1 -12 5 -18 13 -16 19 -28 19 -46 0 -20 -19 -43 -19
-50 0 -7 17 -44 21 -44 5 0 -5 -7 -10 -15 -10 -8 0 -15 4 -15 9 0 6 -9 9 -20
8 -11 -1 -20 -5 -20 -10 0 -5 -9 -6 -19 -2 -11 3 -22 1 -26 -5 -9 -15 -25 -12
-25 5 0 24 -29 30 -44 10 -10 -14 -17 -15 -32 -7 -13 7 -25 7 -37 1 -10 -6
-26 -7 -37 -4 -13 4 -22 1 -26 -9 -9 -23 -34 -20 -34 4 0 13 -7 20 -20 20 -12
0 -20 -7 -20 -17 0 -14 -2 -15 -9 -4 -5 8 -18 12 -31 8 -12 -3 -33 -1 -46 5
-27 12 -47 2 -24 -12 8 -5 11 -12 7 -16 -4 -4 -16 1 -27 11 -12 11 -26 15 -37
10 -10 -4 -35 -9 -57 -11 -33 -3 -36 -2 -26 11 10 12 9 15 -8 15 -12 0 -25 -7
-30 -15 -6 -13 -14 -13 -40 -4 -26 9 -37 8 -57 -5 -32 -21 -38 -20 -32 4 6 23
-18 28 -26 6 -5 -12 -35 -14 -169 -11 -145 4 -188 6 -223 15 -22 5 -34 -1 -40
-20 -3 -11 -15 -20 -26 -20 -24 0 -25 20 -1 21 9 1 -3 5 -28 9 -29 5 -47 3
-52 -4 -5 -7 -18 -5 -43 7 -28 13 -39 14 -54 5 -30 -18 -48 -4 -53 44 -2 24
-5 126 -7 228 -2 196 -10 230 -44 196 -22 -23 -32 -2 -17 35 10 23 10 32 0 44
-15 18 -36 19 -44 3 -5 -11 -7 -11 -12 0 -3 6 -11 12 -18 12 -21 0 -125 70
-131 89 -3 10 -1 30 5 45 11 29 110 136 126 136 5 0 18 14 28 31 10 17 24 28
31 25 16 -6 95 49 95 67 0 6 20 23 46 36 70 37 78 69 22 90 -19 7 -28 7 -32
-2 -3 -9 -6 -9 -13 0 -5 7 -14 9 -22 3 -8 -4 -20 -6 -28 -3 -15 6 -18 33 -3
33 6 0 13 7 16 15 6 14 -81 115 -98 115 -10 0 -128 121 -128 131 0 5 -11 14
-24 21 -13 7 -62 58 -110 113 -48 55 -104 120 -126 144 -65 73 -76 106 -82
255 -2 37 -8 61 -15 63 -17 6 -16 23 1 23 17 0 26 21 26 60 0 23 5 29 30 33
17 4 30 13 30 21 0 10 13 16 43 18 39 3 44 6 69 53 14 27 38 57 51 67 14 10
28 32 32 48 4 17 10 30 15 30 4 0 11 16 14 35 4 19 11 35 17 35 5 0 7 11 3 24
-3 13 1 37 9 53 9 16 25 60 38 97 12 38 28 81 35 95 8 14 14 31 14 38 0 13 5
25 65 163 21 46 38 89 39 95 1 5 8 25 15 43 10 23 10 36 3 45 -13 16 -4 59 15
70 7 4 13 18 13 30 0 13 7 33 16 45 9 13 13 29 11 37 -3 7 3 30 14 51 14 29
16 40 6 46 -7 5 -8 8 -1 8 12 0 34 43 34 67 0 9 7 24 16 34 14 16 14 19 -7 40
-22 22 -22 22 -37 3 -7 -10 -18 -31 -24 -46 -5 -16 -14 -28 -19 -28 -14 0 -10
26 6 40 8 7 17 28 21 49 4 20 11 42 16 48 6 7 7 29 4 48 -5 27 -4 35 8 35 14
0 17 13 32 143 3 26 10 47 15 47 6 0 9 6 8 13 -1 6 2 23 8 37 5 14 8 45 7 70
-2 24 1 49 5 55 5 5 9 26 9 45 0 19 5 48 11 64 9 21 8 37 -1 63 -9 24 -9 39
-2 51 6 9 11 60 12 112 2 70 7 99 19 112 14 16 14 22 -2 69 -10 33 -14 65 -10
87 4 20 2 39 -6 48 -8 10 -8 18 0 27 7 9 8 29 3 58 -6 38 -11 44 -35 47 -19 2
-27 9 -27 23 0 11 3 18 8 16 4 -3 17 -1 30 4 18 7 21 14 16 34 -4 15 -1 32 6
40 9 10 9 15 1 15 -6 0 -11 9 -11 20 0 13 -9 22 -26 26 -20 5 -24 11 -20 27 3
13 -2 29 -12 41 -16 18 -16 19 7 13 12 -3 34 -1 47 5 21 10 24 16 17 42 -4 17
-7 46 -8 65 0 26 -6 36 -23 42 -13 5 -22 17 -22 29 0 11 -9 25 -19 32 -15 9
-17 17 -11 34 5 12 7 24 5 26 -4 4 -15 67 -29 166 -2 13 -11 29 -21 35 -9 7
-18 26 -20 42 -9 73 -23 124 -48 170 -67 129 -80 164 -67 180 8 10 9 19 3 28
-6 6 -16 29 -22 49 -7 20 -19 42 -27 48 -7 7 -14 19 -14 26 0 22 -69 124 -84
124 -9 0 -12 8 -9 24 3 15 -2 30 -14 42 -11 11 -22 27 -26 36 -3 9 -16 18 -29
20 -16 2 -24 12 -29 35 -8 39 -55 104 -81 111 -10 2 -18 7 -18 11 0 7 -68 88
-108 129 -15 16 -29 21 -42 17 -16 -5 -20 -2 -20 16 0 33 -116 142 -144 135
-15 -4 -27 2 -41 20 -42 54 -65 74 -84 74 -11 0 -28 11 -39 25 -11 14 -25 25
-30 25 -6 0 -14 9 -17 20 -8 25 -54 50 -92 50 -29 1 -73 30 -73 49 0 26 -84
46 -106 24 -9 -9 -21 -12 -32 -7 -9 4 -19 8 -22 9 -3 0 -27 11 -55 23 -27 13
-58 21 -67 19 -10 -3 -23 2 -29 10 -7 8 -21 12 -31 10 -10 -3 -18 -2 -18 2 0
12 -77 44 -88 37 -6 -4 -27 3 -47 14 -28 16 -40 18 -50 10 -10 -8 -21 -7 -44
4 -37 20 -49 20 -67 1 -22 -21 -32 -19 -62 13 -15 15 -39 33 -55 41 -15 8 -30
25 -33 38 -4 13 -10 23 -14 23 -5 0 -19 17 -31 37 -13 21 -31 45 -41 55 -10
10 -20 30 -24 45 -13 54 -63 93 -88 68z m34 -376 c0 -21 55 -89 73 -89 15 0
17 -8 15 -55 -2 -48 1 -58 26 -84 23 -24 27 -34 21 -61 -8 -34 9 -85 30 -94
22 -8 28 -96 11 -138 -23 -54 -21 -76 9 -84 18 -4 32 -1 46 12 12 11 23 18 25
17 14 -9 23 4 43 62 13 36 27 65 31 65 5 0 20 25 35 55 14 30 29 55 34 55 5 0
11 8 15 18 3 9 17 35 30 57 14 22 32 54 42 70 20 35 32 45 50 38 29 -11 24
-41 -16 -101 -22 -34 -40 -66 -40 -72 0 -5 -4 -10 -9 -10 -4 0 -27 -38 -50
-84 -22 -47 -46 -88 -51 -91 -6 -3 -10 -13 -10 -22 0 -8 -14 -43 -31 -76 -16
-33 -28 -66 -25 -73 8 -21 70 -17 90 5 10 11 15 24 12 29 -3 6 5 17 19 26 15
10 22 22 19 31 -4 8 7 27 25 46 17 17 31 35 31 40 0 6 13 21 28 34 15 13 34
36 42 51 17 33 85 138 106 163 7 9 22 27 32 41 17 21 22 22 36 11 21 -18 20
-26 -9 -68 -13 -20 -22 -40 -19 -45 3 -4 1 -8 -4 -8 -5 0 -17 -18 -27 -40 -10
-23 -27 -50 -37 -62 -10 -12 -18 -32 -18 -45 0 -12 -4 -23 -8 -23 -10 0 -45
-60 -35 -60 4 0 3 -4 -3 -8 -9 -6 -34 -42 -82 -117 -51 -82 -52 -113 -1 -126
35 -9 54 5 73 51 17 44 79 133 114 163 11 10 28 17 38 15 10 -2 19 3 19 10 0
7 11 18 24 25 14 7 29 26 34 42 6 17 13 32 16 35 3 3 18 23 33 45 43 62 87
107 103 103 12 -2 6 -17 -24 -63 -22 -33 -46 -68 -55 -77 -8 -9 -12 -19 -9
-22 4 -3 -1 -14 -10 -24 -9 -10 -24 -36 -33 -57 -19 -47 -98 -177 -131 -219
-23 -27 -23 -30 -7 -47 9 -11 26 -19 36 -19 24 0 108 79 108 102 0 10 14 27
30 40 17 12 30 29 30 39 0 9 6 19 14 22 7 3 27 29 44 59 17 29 39 62 49 73 10
11 25 34 32 52 7 17 21 39 31 48 17 16 20 15 39 -4 17 -17 18 -24 8 -53 -7
-18 -18 -37 -24 -41 -7 -4 -13 -15 -13 -22 0 -8 -3 -15 -7 -15 -5 0 -16 -15
-27 -33 -48 -83 -56 -98 -56 -107 0 -6 -15 -31 -34 -57 -18 -27 -48 -79 -66
-118 -18 -38 -37 -72 -42 -73 -5 -2 -16 -17 -24 -34 -13 -25 -14 -32 -2 -39
37 -24 108 6 108 47 0 16 48 90 83 129 28 30 117 164 117 175 0 6 4 10 9 10 6
0 31 32 57 71 43 64 49 69 61 53 18 -24 17 -25 -17 -73 -17 -23 -28 -46 -25
-51 3 -4 2 -10 -3 -12 -12 -5 -52 -77 -52 -94 0 -8 -7 -14 -15 -14 -8 0 -18
-12 -21 -27 -8 -28 -17 -43 -46 -71 -12 -11 -14 -20 -7 -28 7 -8 3 -13 -11
-17 -12 -3 -20 -13 -20 -26 0 -11 -16 -36 -35 -55 -22 -22 -35 -45 -35 -61 0
-15 -17 -47 -40 -76 -53 -67 -53 -89 0 -89 30 0 42 5 47 18 3 9 15 27 26 39
11 12 17 28 14 36 -3 9 7 23 24 36 16 12 29 30 29 39 0 10 14 31 30 47 17 16
30 35 30 42 0 7 4 13 10 13 5 0 33 35 62 77 29 42 70 99 90 127 21 28 45 68
54 89 20 43 40 47 56 11 10 -21 9 -31 -5 -52 -9 -15 -27 -47 -39 -72 -13 -25
-26 -46 -30 -48 -5 -2 -8 -8 -8 -13 0 -5 -13 -28 -30 -50 -16 -23 -28 -45 -25
-49 3 -4 -2 -13 -10 -20 -8 -7 -12 -16 -9 -21 3 -5 -1 -9 -8 -9 -7 0 -26 -28
-43 -61 -16 -34 -36 -64 -42 -66 -7 -3 -13 -9 -13 -15 0 -5 -16 -34 -35 -64
-19 -30 -35 -61 -35 -69 0 -8 -5 -15 -10 -15 -14 0 -39 -60 -33 -77 3 -7 -2
-13 -11 -13 -17 0 -32 -41 -22 -65 9 -23 35 -18 67 14 16 16 42 32 58 36 27 6
78 52 68 62 -7 6 30 43 43 43 5 0 21 21 36 48 31 53 64 95 142 178 29 32 51
63 48 70 -3 7 6 15 19 18 16 4 27 18 35 41 6 19 19 41 29 47 9 7 20 21 24 31
9 23 23 22 30 -4 3 -12 0 -22 -9 -26 -8 -3 -12 -9 -9 -13 3 -5 -8 -23 -25 -41
-16 -19 -30 -43 -30 -55 0 -15 -8 -24 -26 -28 -19 -5 -25 -12 -21 -25 3 -13
-5 -26 -25 -41 -28 -21 -29 -23 -13 -40 17 -18 16 -19 -11 -17 -17 1 -28 -3
-27 -10 1 -6 -4 -17 -12 -23 -8 -7 -15 -16 -15 -21 0 -4 -5 -20 -12 -36 -6
-15 -12 -31 -12 -34 -1 -3 -9 -13 -18 -23 -10 -10 -21 -28 -24 -41 -3 -13 -12
-26 -19 -28 -7 -3 -15 -17 -19 -30 -3 -14 -22 -49 -41 -79 -20 -29 -41 -67
-47 -85 -6 -17 -20 -34 -30 -36 -21 -6 -40 -50 -31 -72 3 -10 1 -15 -7 -13 -7
2 -18 -14 -26 -35 -11 -32 -11 -39 1 -43 7 -3 20 -2 28 3 27 16 127 133 127
148 0 9 12 28 26 42 21 21 28 23 36 12 7 -10 8 -8 3 7 -3 13 1 26 10 34 8 7
15 21 15 31 0 11 23 41 50 67 30 29 50 57 50 70 0 15 6 22 20 22 13 0 20 7 20
20 0 11 11 27 24 35 14 9 29 29 34 45 6 15 20 31 31 35 12 3 21 11 21 16 0 5
24 45 54 89 55 80 65 84 80 33 5 -15 0 -28 -19 -47 -14 -14 -25 -31 -25 -39 0
-8 -7 -20 -15 -27 -9 -7 -14 -19 -11 -27 3 -8 -2 -13 -15 -13 -11 0 -17 -4
-14 -10 8 -12 -26 -59 -42 -60 -7 0 -13 -8 -13 -19 0 -10 -9 -30 -20 -44 -11
-14 -20 -30 -20 -36 0 -6 -4 -11 -9 -11 -5 0 -24 -26 -41 -57 -18 -32 -41 -67
-51 -78 -20 -22 -52 -78 -94 -162 -14 -29 -29 -53 -33 -53 -4 0 -16 -15 -26
-32 -11 -18 -34 -50 -53 -71 -18 -20 -33 -41 -33 -45 0 -5 -13 -24 -30 -42
-30 -34 -38 -64 -20 -75 19 -12 10 -22 -14 -18 -28 6 -76 -34 -76 -62 0 -18
42 -40 62 -33 7 3 23 25 35 49 12 24 36 52 52 62 17 10 34 29 37 42 3 13 14
27 24 30 10 3 23 19 30 36 7 16 26 44 41 60 16 17 29 42 29 56 0 16 7 27 20
30 11 3 20 14 20 23 0 10 14 28 30 40 17 12 30 26 30 32 0 14 71 127 85 136 7
4 24 26 39 50 18 28 32 42 42 38 8 -3 14 -1 14 4 0 5 21 41 48 81 26 39 54 85
63 103 21 38 43 40 47 4 3 -21 -1 -28 -13 -28 -13 0 -16 -6 -11 -24 3 -13 3
-26 -2 -28 -7 -3 -77 -108 -126 -188 -47 -77 -98 -145 -107 -142 -8 2 -13 -12
-10 -30 0 -4 -12 -21 -28 -39 -17 -18 -40 -54 -53 -81 -12 -26 -28 -48 -34
-48 -7 0 -17 -12 -23 -27 -6 -16 -27 -50 -46 -78 -19 -27 -53 -78 -77 -113
-24 -34 -55 -76 -69 -92 -14 -17 -34 -46 -45 -65 -10 -19 -26 -37 -34 -40 -19
-6 -90 -109 -90 -130 0 -8 -5 -15 -12 -15 -19 0 -58 -42 -58 -61 0 -10 -9 -23
-21 -29 -25 -14 -22 -53 4 -58 12 -3 37 15 70 51 65 68 155 177 170 202 6 11
23 31 39 46 16 14 30 36 31 47 1 12 6 22 11 22 17 0 56 43 56 61 0 10 8 24 18
31 10 7 35 38 55 68 21 30 47 66 59 80 12 14 37 50 56 80 38 60 110 137 124
132 4 -1 8 5 8 14 0 9 30 52 68 97 71 86 99 127 132 194 24 49 38 61 46 38 9
-23 -36 -109 -91 -175 -25 -30 -48 -66 -52 -79 -3 -14 -16 -34 -27 -45 -31
-30 -104 -139 -121 -181 -9 -19 -20 -35 -26 -35 -5 0 -7 -4 -4 -10 3 -5 1 -10
-4 -10 -6 0 -11 -9 -11 -19 0 -10 -6 -21 -13 -24 -7 -3 -24 -22 -38 -43 -14
-22 -69 -105 -122 -185 -92 -139 -131 -194 -178 -248 -11 -13 -29 -41 -40 -62
-11 -22 -23 -39 -27 -39 -4 0 -16 -15 -27 -32 -16 -28 -139 -194 -155 -208 -3
-3 -17 -21 -32 -40 -14 -19 -42 -52 -62 -73 -49 -51 -45 -77 13 -77 18 0 161
165 212 245 14 22 45 62 68 89 23 27 40 54 37 61 -2 7 4 15 14 18 22 6 50 47
53 76 1 12 7 20 14 18 7 -1 21 10 30 24 41 61 105 140 123 152 11 6 20 18 20
25 0 8 16 33 35 56 19 24 35 47 35 53 0 5 11 19 25 31 14 12 25 31 25 42 0 11
7 20 16 20 8 0 22 16 30 35 8 19 20 35 27 35 6 0 28 23 47 51 19 28 68 90 108
138 40 47 90 117 110 154 l37 68 13 -32 c14 -35 14 -35 -28 -99 -17 -25 -37
-59 -45 -77 -8 -18 -35 -55 -60 -83 -24 -28 -51 -63 -59 -78 -17 -32 -80 -131
-96 -149 -5 -7 -10 -16 -10 -21 0 -5 -9 -17 -20 -27 -11 -10 -20 -22 -20 -27
0 -5 -9 -19 -21 -31 -11 -12 -32 -44 -46 -72 -14 -27 -32 -54 -39 -58 -8 -4
-14 -14 -14 -22 0 -7 -3 -15 -7 -17 -12 -5 -88 -109 -106 -144 -9 -18 -29 -46
-44 -62 -40 -44 -78 -93 -92 -119 -6 -12 -23 -35 -36 -49 -14 -15 -28 -38 -31
-51 -4 -13 -10 -23 -15 -23 -5 0 -15 -12 -22 -27 -6 -16 -22 -36 -34 -46 -12
-10 -25 -27 -29 -39 -3 -11 -23 -37 -43 -57 -20 -20 -48 -52 -63 -71 -81 -103
-177 -215 -240 -280 -27 -26 -48 -55 -48 -63 0 -8 -14 -27 -30 -41 -17 -14
-47 -47 -67 -73 -20 -26 -43 -54 -50 -61 -7 -7 -13 -16 -13 -20 0 -6 -59 -73
-121 -137 -10 -12 -19 -25 -19 -30 0 -6 -16 -23 -35 -38 -19 -15 -35 -34 -35
-42 0 -8 -5 -15 -12 -15 -18 0 -48 -31 -48 -51 0 -10 11 -26 25 -35 23 -15 25
-15 49 13 14 15 26 33 26 39 0 7 32 44 71 84 50 52 69 78 66 91 -3 11 -1 16 5
13 11 -7 48 24 48 40 0 6 25 33 55 60 30 27 55 55 55 62 0 6 16 26 35 43 19
17 35 34 35 39 0 5 10 14 23 21 13 7 31 25 40 39 9 15 33 45 53 67 20 22 48
55 62 73 13 18 43 51 64 75 22 23 46 57 54 75 8 17 19 32 24 32 5 0 25 21 44
48 19 26 46 61 60 77 62 72 175 216 221 280 27 39 66 86 87 106 21 20 38 43
38 52 0 10 5 17 10 17 19 0 59 54 54 72 -4 12 3 21 19 29 13 6 32 25 42 42 10
18 38 54 63 82 24 27 51 65 60 84 21 43 47 60 64 43 10 -10 10 -17 -1 -34 -7
-12 -25 -42 -39 -67 -14 -25 -36 -60 -49 -77 -12 -17 -23 -36 -23 -42 0 -6 -4
-12 -8 -14 -4 -1 -29 -34 -55 -73 -26 -38 -63 -90 -82 -115 -18 -25 -34 -51
-34 -57 -1 -7 -7 -13 -14 -13 -6 0 -29 -26 -50 -57 -36 -56 -67 -99 -177 -247
-28 -37 -54 -75 -57 -83 -3 -8 -16 -26 -29 -40 -13 -14 -46 -58 -73 -98 -27
-41 -69 -98 -93 -128 -24 -29 -63 -82 -88 -117 -24 -34 -55 -66 -67 -71 -13
-5 -22 -12 -21 -16 5 -20 -16 -55 -39 -64 -16 -6 -23 -14 -19 -24 3 -9 0 -15
-9 -15 -8 0 -19 -9 -25 -20 -6 -11 -36 -47 -68 -79 -31 -33 -84 -91 -117 -130
-33 -39 -70 -82 -82 -95 -13 -13 -23 -32 -23 -44 0 -13 -6 -19 -17 -18 -10 0
-22 -9 -28 -21 -5 -13 -15 -23 -22 -23 -14 0 -73 -70 -73 -87 0 -7 -9 -13 -19
-13 -12 0 -25 -11 -33 -27 -7 -16 -19 -28 -27 -28 -8 0 -18 -8 -22 -17 -5 -10
-13 -25 -17 -35 -4 -9 -17 -18 -28 -19 -18 -3 -54 -38 -54 -53 0 -4 11 -18 25
-31 23 -22 26 -22 49 -7 13 9 27 25 31 36 3 11 15 23 26 26 11 4 27 19 37 33
9 15 25 33 34 40 10 7 18 22 18 33 0 10 6 19 14 19 8 0 29 19 48 42 18 24 67
77 108 118 229 231 410 426 410 441 0 12 6 16 19 12 21 -5 46 29 38 52 -4 8 0
11 11 8 24 -6 273 249 402 412 19 24 41 44 48 44 6 1 12 5 12 10 0 15 89 124
183 221 16 18 33 27 42 24 19 -8 20 -44 1 -44 -8 0 -25 -15 -37 -32 -13 -18
-27 -34 -31 -36 -4 -2 -8 -9 -8 -16 0 -7 -11 -19 -25 -26 -14 -7 -25 -17 -25
-22 0 -5 -9 -19 -21 -31 -12 -12 -43 -53 -69 -92 -26 -38 -64 -86 -84 -104
-20 -19 -36 -39 -36 -44 0 -4 -18 -30 -40 -56 -22 -26 -40 -53 -40 -59 0 -7
-6 -12 -13 -12 -8 0 -19 -11 -25 -25 -6 -14 -16 -25 -22 -25 -5 0 -10 -6 -10
-14 0 -8 -9 -18 -20 -21 -11 -3 -20 -12 -20 -18 0 -7 -18 -32 -40 -57 -22 -24
-42 -52 -45 -61 -3 -9 -33 -45 -66 -80 -33 -34 -62 -73 -65 -85 -3 -13 -11
-21 -18 -18 -16 6 -33 -14 -38 -46 -2 -17 -10 -26 -26 -28 -16 -2 -22 -8 -18
-18 3 -9 -1 -14 -13 -14 -11 0 -30 -18 -46 -42 -16 -24 -69 -83 -118 -131 -84
-82 -90 -91 -81 -115 6 -17 18 -28 32 -30 13 -2 26 -10 29 -18 7 -19 -2 -28
-19 -18 -7 5 -19 9 -26 10 -15 3 -46 -62 -37 -76 4 -6 1 -10 -4 -10 -6 0 -11
4 -11 10 0 5 -7 7 -15 4 -8 -4 -15 -10 -15 -14 0 -5 -5 -21 -12 -37 -6 -15
-10 -35 -9 -43 2 -13 1 -13 -9 0 -9 13 -12 13 -24 -2 -7 -10 -17 -18 -22 -18
-4 0 -20 -12 -35 -26 -26 -25 -27 -27 -11 -55 10 -16 20 -29 23 -29 12 0 79
74 79 87 0 7 3 12 8 11 4 -1 19 4 34 12 28 13 44 42 33 60 -3 5 1 10 11 10 9
0 48 26 86 58 38 31 93 74 121 94 86 63 527 487 527 508 0 6 11 16 25 22 14 6
25 18 25 25 0 8 4 12 9 9 9 -6 131 116 131 131 0 5 14 17 30 26 17 10 30 24
30 31 0 7 9 21 21 32 21 18 21 18 17 -16 -2 -27 -8 -36 -25 -38 -15 -2 -23
-10 -23 -23 0 -20 -151 -216 -180 -233 -8 -5 -28 -22 -43 -38 -16 -15 -32 -28
-35 -28 -4 0 -20 -18 -36 -40 -16 -22 -32 -38 -34 -35 -5 5 -122 -133 -122
-145 0 -4 -10 -10 -22 -14 -13 -3 -30 -16 -38 -29 -19 -29 -136 -137 -150
-137 -5 0 -12 -11 -16 -25 -3 -14 -10 -25 -15 -25 -24 0 -285 -245 -406 -381
-11 -13 -44 -46 -72 -73 -38 -36 -50 -53 -45 -68 5 -16 2 -18 -20 -12 -20 5
-26 2 -26 -11 0 -9 -18 -33 -40 -52 -22 -20 -40 -42 -40 -50 0 -15 -6 -16 -77
-17 -29 -1 -53 3 -53 7 0 5 -25 5 -55 2 -51 -7 -55 -6 -55 13 0 12 7 27 15 34
39 33 46 41 41 54 -5 12 10 25 39 36 6 1 9 20 8 40 -1 32 2 38 28 47 34 12 38
36 8 52 -17 9 -25 7 -45 -12 -13 -12 -24 -30 -24 -40 0 -9 -13 -22 -30 -29
-16 -7 -30 -16 -30 -19 0 -4 -25 -36 -55 -71 -30 -35 -55 -72 -55 -83 0 -14
-4 -17 -17 -12 -10 4 -28 9 -40 10 -67 9 -72 23 -27 77 12 16 26 38 30 50 3
12 16 30 28 39 20 17 21 17 2 38 -23 25 -54 27 -63 5 -3 -9 -16 -26 -28 -38
-12 -13 -28 -39 -36 -59 -7 -20 -18 -37 -25 -37 -6 0 -21 -23 -32 -51 -18 -42
-24 -49 -39 -41 -10 5 -24 7 -30 5 -7 -3 -13 0 -13 7 0 7 -12 9 -35 4 -32 -6
-35 -4 -35 19 0 13 7 30 15 37 8 7 15 18 15 24 0 6 24 48 54 93 35 54 50 86
45 95 -5 7 -9 20 -9 28 0 11 3 11 12 2 17 -17 29 -15 22 3 -11 29 -53 16 -99
-29 -25 -24 -45 -49 -45 -55 0 -35 -143 -211 -171 -211 -8 0 -25 7 -37 16 -13
9 -29 13 -37 10 -7 -2 -19 2 -27 11 -9 12 -10 17 -2 20 7 2 10 12 7 21 -2 10
7 31 21 47 14 17 26 35 26 41 0 6 12 20 26 33 14 12 33 40 43 61 10 22 29 51
44 64 30 28 45 72 29 88 -19 19 -66 -6 -85 -45 -9 -20 -22 -37 -27 -37 -6 0
-10 -9 -10 -20 0 -11 -6 -20 -14 -20 -18 0 -55 -51 -49 -67 3 -7 -2 -13 -9
-13 -14 0 -58 -52 -58 -68 0 -17 -41 -62 -56 -62 -16 0 -74 49 -74 63 0 5 10
22 23 37 20 25 42 59 75 116 6 12 26 36 42 54 17 18 30 39 30 47 0 8 14 28 30
43 17 15 30 37 30 48 0 12 11 24 30 32 16 7 32 22 36 34 4 11 21 33 38 47 31
27 31 27 12 48 -11 12 -26 21 -35 21 -21 0 -84 -67 -102 -109 -8 -17 -19 -31
-25 -31 -9 0 -54 -53 -54 -64 0 -2 -9 -15 -20 -28 -64 -76 -140 -188 -140
-208 0 -16 -4 -20 -15 -16 -9 3 -25 0 -37 -7 -16 -10 -22 -9 -25 1 -3 7 -20
19 -38 26 -41 17 -55 54 -29 73 10 7 24 13 31 13 7 0 13 7 13 15 0 9 20 37 45
63 25 26 45 52 45 59 0 7 4 13 10 13 5 0 21 20 36 45 14 25 30 45 34 45 5 0
12 10 16 23 4 12 28 47 53 77 26 30 60 74 76 98 15 24 46 57 68 74 27 22 37
36 34 50 -4 13 4 28 24 45 34 30 38 47 9 38 -11 -4 -20 -2 -20 4 0 6 13 11 28
11 29 0 102 55 102 76 0 6 -9 19 -20 29 -28 26 -57 8 -114 -69 -24 -34 -58
-74 -75 -90 -33 -32 -39 -51 -18 -59 6 -2 9 -8 5 -12 -4 -4 -14 -3 -22 4 -11
9 -18 6 -35 -15 -12 -15 -21 -33 -21 -40 0 -8 -6 -14 -12 -14 -7 0 -30 -26
-50 -58 -21 -31 -59 -81 -86 -110 -27 -29 -59 -71 -73 -92 -13 -22 -29 -40
-35 -40 -6 0 -14 -13 -17 -30 -4 -16 -13 -30 -20 -30 -16 0 -67 -72 -67 -94 0
-12 -7 -11 -36 7 -19 12 -44 27 -56 33 -19 11 -17 14 30 50 28 22 51 45 51 52
1 23 70 106 114 138 23 17 42 37 42 44 0 14 19 40 63 87 12 13 22 30 22 37 0
7 9 21 21 32 11 10 41 48 67 84 26 36 70 89 99 118 29 29 55 62 58 73 4 11 18
24 31 29 13 5 29 21 34 34 5 13 18 27 29 31 12 3 21 11 21 18 0 6 14 25 31 41
51 51 109 126 109 142 0 23 29 28 50 9 31 -28 52 -12 50 37 -2 58 -1 65 9 49
12 -19 30 -5 48 36 8 19 23 37 34 40 10 3 19 14 19 24 0 11 3 18 8 17 15 -5
72 25 72 39 0 8 15 29 33 47 71 72 163 179 174 206 7 16 24 37 39 47 72 50 88
70 87 108 -1 31 3 38 26 46 16 6 31 22 38 39 7 18 21 32 37 36 14 3 26 13 26
21 0 7 11 25 25 39 14 14 25 34 25 44 0 11 9 24 20 30 11 6 20 20 20 31 0 12
11 30 24 40 13 10 26 32 29 49 7 31 10 34 60 44 23 6 26 9 17 26 -15 28 -12
60 5 60 17 0 20 23 5 51 -9 16 -7 19 10 19 11 0 22 6 24 13 1 6 12 40 24 75
11 35 19 69 15 77 -3 8 0 37 7 64 9 39 9 59 0 86 -9 28 -8 50 4 111 11 53 13
81 6 89 -6 7 -12 57 -14 112 -2 67 -8 109 -19 129 -9 16 -18 41 -21 56 -3 15
-21 43 -40 62 -37 39 -82 48 -110 21 -17 -17 -26 -88 -24 -195 2 -84 -21 -270
-33 -270 -4 0 -7 -13 -7 -28 1 -28 -18 -99 -32 -117 -4 -5 -10 -27 -14 -47 -5
-25 -13 -39 -27 -43 -26 -9 -33 -1 -20 22 5 11 21 62 35 114 13 52 32 119 40
149 18 61 21 120 7 120 -5 0 -16 3 -25 6 -20 8 -41 -41 -80 -181 -16 -55 -32
-109 -36 -120 -11 -25 -46 -145 -61 -207 -7 -29 -17 -48 -25 -48 -8 0 -14 -4
-14 -10 0 -16 -27 -12 -34 5 -3 9 1 18 10 22 8 3 13 12 10 20 -10 25 13 138
45 231 17 48 34 105 39 127 5 22 13 52 19 67 8 22 7 31 -6 43 -28 29 -57 15
-70 -35 -7 -25 -22 -76 -34 -115 -12 -38 -28 -95 -35 -125 -8 -30 -21 -66 -28
-80 -8 -14 -17 -41 -21 -60 -9 -45 -43 -120 -54 -120 -18 0 -32 28 -23 47 15
28 33 113 27 123 -3 5 -1 17 4 27 14 24 63 217 68 272 4 35 1 47 -13 58 -38
28 -50 15 -64 -72 -5 -27 -18 -88 -31 -135 -12 -47 -23 -92 -24 -100 0 -8 -7
-25 -14 -38 -7 -13 -20 -54 -30 -92 -19 -72 -48 -119 -69 -112 -6 2 -12 15
-12 28 0 45 32 166 52 201 15 24 18 37 10 45 -8 8 -7 17 3 32 8 11 15 44 17
71 3 44 1 50 -17 50 -26 0 -56 -65 -80 -175 -10 -47 -24 -90 -31 -96 -13 -10
-31 -69 -41 -132 -6 -40 -15 -45 -46 -31 -25 11 -25 13 -12 58 7 25 13 55 13
66 0 11 17 78 37 149 44 156 43 170 -7 174 l-38 3 0 -48 c0 -27 -4 -53 -9 -59
-11 -12 -51 -138 -51 -161 0 -10 -9 -24 -20 -31 -11 -7 -20 -21 -20 -32 0 -24
-8 -25 -30 -5 -15 14 -15 20 1 82 30 116 22 143 -45 143 -20 0 -27 -6 -32 -27
-3 -16 -14 -50 -24 -78 -10 -27 -26 -77 -35 -110 -29 -101 -80 -192 -103 -184
-9 3 -8 11 2 30 14 27 17 42 37 168 10 68 10 76 -7 88 -36 26 -53 9 -69 -69
-19 -91 -86 -258 -103 -258 -16 0 -13 22 14 112 20 66 11 88 -36 88 -24 0 -30
-6 -44 -49 -9 -28 -16 -56 -16 -64 0 -8 -9 -26 -20 -40 -11 -14 -23 -40 -26
-59 -4 -18 -12 -39 -18 -47 -6 -8 -16 -32 -22 -55 -16 -56 -42 -127 -54 -148
-6 -10 -10 -25 -10 -33 0 -8 -7 -15 -16 -15 -12 0 -15 6 -9 23 3 12 8 33 10
47 2 14 23 85 47 159 43 130 44 135 26 153 -10 10 -25 18 -33 18 -16 0 -65
-91 -65 -121 0 -8 -4 -19 -9 -25 -5 -5 -30 -72 -56 -149 -26 -77 -54 -150 -62
-163 -18 -29 -83 -199 -83 -218 0 -7 -8 -23 -17 -33 -16 -20 -17 -20 -30 -1
-11 15 -11 29 -2 67 18 78 61 217 70 229 5 6 13 33 19 62 6 28 18 56 25 62 8
6 12 17 9 25 -3 7 2 29 10 49 14 35 14 38 -5 57 -30 30 -52 20 -63 -26 -5 -22
-27 -92 -49 -155 -21 -63 -47 -141 -57 -172 -11 -31 -23 -65 -29 -75 -5 -10
-12 -26 -15 -35 -6 -22 -34 -23 -60 -3 -15 12 -17 19 -9 42 20 54 35 132 27
144 -4 8 -3 9 4 5 7 -4 12 -5 12 -2 0 2 3 11 6 19 7 18 -21 47 -46 47 -13 0
-23 -14 -34 -47 -9 -26 -16 -55 -16 -65 0 -10 -4 -18 -8 -18 -5 0 -14 -17 -20
-37 l-11 -38 -50 3 c-36 3 -52 9 -55 20 -9 34 -16 78 -21 142 -3 36 -10 79
-16 95 -5 17 -21 71 -35 120 -14 50 -30 106 -35 125 -6 19 -14 53 -19 75 -5
22 -13 51 -18 65 -11 28 -5 35 103 116 72 54 245 232 245 252 0 8 9 12 23 10
25 -3 92 52 102 83 3 10 21 23 40 29 19 6 37 20 40 30 4 11 27 37 52 57 26 21
84 75 129 119 45 45 99 94 118 109 20 15 36 36 36 47 0 28 59 98 100 117 28
13 36 23 40 51 3 24 14 41 35 55 17 11 77 70 134 130 58 61 117 114 133 120
15 5 28 16 28 25 0 8 54 71 119 139 l119 124 42 -7 c83 -13 150 27 156 92 4
39 20 125 42 222 11 47 23 105 26 130 10 68 26 110 42 110 8 0 14 -5 14 -11z
m240 -149 c0 -5 -4 -10 -10 -10 -5 0 -10 5 -10 10 0 6 5 10 10 10 6 0 10 -4
10 -10z m110 -20 c0 -5 -5 -10 -11 -10 -5 0 -7 5 -4 10 3 6 8 10 11 10 2 0 4
-4 4 -10z m-29 -63 c-13 -13 -15 1 -4 30 7 17 8 17 11 -1 2 -10 -1 -23 -7 -29z
m-25 -64 c-11 -11 -19 6 -11 24 8 17 8 17 12 0 3 -10 2 -21 -1 -24z m-646 -98
c0 -8 -4 -15 -9 -15 -5 0 -11 7 -15 15 -3 9 0 15 9 15 8 0 15 -7 15 -15z
m1707 -567 c-3 -8 -6 -5 -6 6 -1 11 2 17 5 13 3 -3 4 -12 1 -19z m-2277 -13
c0 -8 -9 -20 -20 -27 -11 -7 -20 -18 -20 -25 0 -7 -4 -13 -10 -13 -14 0 -13 6
13 45 24 37 37 44 37 20z m-120 -114 c0 -13 -29 -41 -41 -41 -6 0 -2 11 8 25
19 25 33 32 33 16z m-212 -178 c-2 -9 -8 -18 -15 -20 -7 -3 -9 3 -6 16 6 25
26 28 21 4z m1752 -188 c0 -8 -2 -15 -4 -15 -2 0 -6 7 -10 15 -3 8 -1 15 4 15
6 0 10 -7 10 -15z m30 -165 c0 -5 -4 -10 -10 -10 -5 0 -10 5 -10 10 0 6 5 10
10 10 6 0 10 -4 10 -10z m1475 -170 c-5 -8 -11 -8 -17 -2 -6 6 -7 16 -3 22 5
8 11 8 17 2 6 -6 7 -16 3 -22z m-2175 -20 c0 -5 -2 -10 -4 -10 -3 0 -8 5 -11
10 -3 6 -1 10 4 10 6 0 11 -4 11 -10z m2138 -65 c9 -19 8 -26 -2 -32 -7 -4
-21 -23 -32 -42 -10 -19 -31 -48 -46 -65 -16 -17 -28 -35 -28 -41 -1 -20 -57
-78 -68 -71 -19 12 -14 31 18 61 17 16 30 35 30 44 0 8 6 22 14 30 27 32 86
121 86 131 0 19 17 10 28 -15z m222 -59 c0 -3 -4 -8 -10 -11 -5 -3 -10 -1 -10
4 0 6 5 11 10 11 6 0 10 -2 10 -4z m-1665 -16 c3 -5 1 -10 -4 -10 -6 0 -11 5
-11 10 0 6 2 10 4 10 3 0 8 -4 11 -10z m-2425 -15 c0 -8 -4 -15 -9 -15 -13 0
-22 16 -14 24 11 11 23 6 23 -9z m-65 -35 c3 -5 1 -10 -4 -10 -6 0 -11 5 -11
10 0 6 2 10 4 10 3 0 8 -4 11 -10z m4005 -99 c0 -6 -4 -13 -10 -16 -5 -3 -10
1 -10 9 0 9 5 16 10 16 6 0 10 -4 10 -9z m-42 -49 c4 -25 -13 -30 -22 -6 -9
25 -7 36 7 32 6 -3 13 -14 15 -26z m-2506 2 c-14 -50 -16 -52 -46 -29 -16 12
-17 17 -6 29 13 16 57 16 52 0z m2478 -47 c0 -16 -34 -66 -41 -62 -16 11 -10
53 9 58 25 7 32 7 32 4z m-70 -76 c0 -5 -7 -14 -15 -21 -16 -14 -18 -10 -9 14
6 17 24 22 24 7z m135 -42 c4 -5 0 -18 -9 -28 -9 -10 -16 -23 -16 -29 0 -7 -4
-12 -9 -12 -5 0 -13 -9 -16 -20 -3 -11 -11 -20 -16 -20 -5 0 -9 9 -9 20 0 11
6 20 14 20 16 0 26 21 26 56 0 25 23 33 35 13z m60 1 c3 -5 1 -10 -4 -10 -6 0
-11 5 -11 10 0 6 2 10 4 10 3 0 8 -4 11 -10z m-2205 -20 c0 -5 -2 -10 -4 -10
-3 0 -8 5 -11 10 -3 6 -1 10 4 10 6 0 11 -4 11 -10z m1920 -60 c0 -5 -4 -10
-10 -10 -5 0 -10 5 -10 10 0 6 5 10 10 10 6 0 10 -4 10 -10z m390 -41 c0 -5
-4 -9 -10 -9 -5 0 -10 7 -10 16 0 8 5 12 10 9 6 -3 10 -10 10 -16z m-422 -14
c-6 -14 -15 -25 -20 -25 -4 0 -8 11 -8 25 0 18 5 25 20 25 17 0 18 -3 8 -25z
m162 1 c0 -26 -20 -67 -29 -61 -12 7 -11 46 2 63 13 16 27 15 27 -2z m-218
-64 c-7 -2 -12 -13 -12 -23 0 -11 -4 -17 -10 -14 -16 10 -12 37 8 51 12 9 18
9 21 1 2 -6 -1 -13 -7 -15z m168 -10 c-1 -18 -80 -112 -80 -95 0 6 10 34 22
62 14 36 24 48 29 39 7 -10 9 -8 9 5 0 10 5 15 10 12 6 -3 10 -14 10 -23z
m-220 -62 c-9 -6 -19 -5 -25 1 -6 6 -5 13 5 19 9 6 19 5 25 -1 6 -6 5 -13 -5
-19z m130 -30 c0 -11 -7 -23 -15 -26 -8 -4 -15 -12 -15 -19 0 -19 -27 -38 -35
-25 -3 6 5 24 19 41 14 17 26 35 26 40 0 5 5 9 10 9 6 0 10 -9 10 -20z m210 0
c0 -12 -5 -26 -11 -33 -5 -7 -19 -27 -29 -44 -11 -18 -24 -33 -30 -33 -21 0
-9 48 20 75 17 16 30 35 30 42 0 7 5 13 10 13 6 0 10 -9 10 -20z m-410 -40 c0
-5 -5 -10 -11 -10 -5 0 -7 5 -4 10 3 6 8 10 11 10 2 0 4 -4 4 -10z m-40 -33
c0 -14 -14 -36 -32 -53 -18 -16 -38 -38 -44 -49 -6 -10 -16 -21 -22 -23 -20
-6 -1 30 35 68 19 19 36 45 39 58 8 29 24 28 24 -1z m-2770 -37 c0 -16 -4 -31
-9 -34 -5 -4 -12 -23 -16 -44 -7 -39 -31 -80 -41 -69 -9 8 49 186 59 180 4 -2
7 -17 7 -33z m1235 8 c-12 -60 -16 -68 -36 -68 -10 0 -19 -7 -19 -15 0 -9 -11
-27 -25 -41 -14 -14 -25 -31 -25 -39 0 -8 -6 -15 -14 -15 -8 0 -17 -6 -20 -12
-21 -43 -45 -73 -59 -76 -32 -6 -17 25 58 126 41 55 75 105 75 110 0 4 11 19
24 31 18 17 25 19 29 9 4 -9 6 -7 6 5 1 9 4 17 7 17 3 0 3 -15 -1 -32z m1683
-11 c4 -30 -22 -47 -40 -29 -9 9 -8 18 2 37 17 31 34 27 38 -8z m212 -7 c0
-13 -63 -102 -93 -132 -15 -15 -27 -33 -27 -40 0 -7 -14 -26 -31 -43 -17 -16
-43 -51 -57 -77 -15 -27 -30 -48 -34 -48 -5 0 -8 -5 -8 -11 0 -13 -16 -28 -52
-52 -16 -10 -25 -23 -22 -31 3 -8 -3 -16 -16 -19 -12 -3 -24 -15 -27 -26 -3
-12 -9 -21 -14 -21 -5 0 -14 -11 -19 -25 -5 -14 -16 -25 -24 -25 -8 0 -22 -15
-31 -32 -8 -18 -40 -58 -70 -87 -30 -30 -58 -63 -61 -74 -3 -10 -23 -35 -45
-54 -21 -19 -39 -39 -39 -43 0 -5 -27 -34 -59 -66 -33 -32 -58 -61 -55 -66 3
-4 1 -8 -5 -8 -5 0 -13 -9 -16 -20 -3 -11 -12 -20 -19 -20 -13 0 -56 -53 -56
-70 0 -5 -8 -10 -18 -10 -9 0 -31 -14 -47 -32 -17 -17 -77 -72 -135 -122 -58
-49 -117 -101 -131 -115 -32 -32 -77 -57 -86 -47 -11 11 10 38 58 75 24 18 47
42 51 52 4 10 17 23 30 30 25 13 88 69 88 79 0 3 34 42 76 86 42 43 89 96 104
116 38 51 112 138 197 230 39 42 74 86 78 96 3 11 19 25 35 32 17 7 30 18 30
25 0 6 37 49 81 95 74 75 80 85 69 103 -11 18 -10 19 7 13 32 -13 38 -11 38 8
0 10 9 24 19 30 30 17 66 58 77 89 15 39 47 35 40 -5 0 -5 4 -8 10 -8 6 0 8 8
4 19 -3 10 1 24 10 31 8 7 15 20 15 30 0 9 15 33 33 53 17 19 42 49 55 66 13
17 28 29 33 25 5 -3 9 1 9 8 0 20 30 59 41 53 5 -4 9 -10 9 -15z m-3030 -52
c0 -16 -3 -19 -11 -11 -6 6 -8 16 -5 22 11 17 16 13 16 -11z m2530 -63 c-7 -9
-15 -13 -18 -10 -3 2 1 11 8 20 7 9 15 13 18 10 3 -2 -1 -11 -8 -20z m561 -70
c-17 -24 -31 -48 -31 -54 0 -5 -7 -14 -16 -19 -8 -5 -21 -20 -27 -33 -7 -13
-22 -28 -35 -34 -12 -5 -22 -15 -22 -22 0 -7 -6 -16 -13 -20 -7 -4 -21 -25
-31 -46 -9 -20 -21 -35 -27 -32 -5 4 -9 1 -9 -6 0 -7 -17 -28 -39 -48 -21 -20
-40 -42 -43 -50 -3 -11 -48 -25 -48 -16 0 12 34 65 41 65 5 0 26 16 46 36 25
25 32 38 24 44 -9 5 -1 14 23 29 20 13 36 29 36 36 0 8 8 19 18 24 10 5 27 26
37 45 11 20 23 36 26 36 4 0 18 17 30 38 13 20 37 52 54 71 43 47 47 13 6 -44z
m-1949 13 c-9 -9 -12 -7 -12 12 0 19 3 21 12 12 9 -9 9 -15 0 -24z m1304 -65
c-10 -10 -19 5 -10 18 6 11 8 11 12 0 2 -7 1 -15 -2 -18z m-1553 -85 c-5 -42
-7 -45 -21 -32 -13 14 -13 19 2 51 9 20 19 34 21 32 2 -2 1 -25 -2 -51z m1482
-17 c-3 -6 -14 -11 -23 -11 -15 1 -15 2 2 15 21 16 32 13 21 -4z m-1531 -47
c8 -21 -11 -45 -30 -37 -17 6 -18 25 -2 41 16 16 25 15 32 -4z m1472 -12 c-18
-16 -18 -16 -6 6 6 13 14 21 18 18 3 -4 -2 -14 -12 -24z m-1531 -42 c3 -5 -1
-10 -9 -10 -9 0 -16 5 -16 10 0 6 4 10 9 10 6 0 13 -4 16 -10z m2295 -39 c0
-11 -6 -22 -12 -25 -10 -5 -10 -7 0 -12 6 -3 12 -12 12 -21 0 -10 -6 -12 -22
-7 -31 9 -30 7 -14 39 8 16 13 32 10 37 -3 4 2 8 10 8 9 0 16 -8 16 -19z m-50
-82 c10 -17 6 -26 -25 -62 -21 -23 -45 -49 -54 -57 -9 -8 -36 -44 -60 -80 -25
-36 -59 -81 -76 -101 -18 -19 -51 -62 -75 -95 -24 -32 -46 -61 -49 -64 -3 -3
-10 -12 -16 -21 -5 -9 -29 -44 -52 -77 -24 -34 -43 -66 -43 -71 0 -6 -5 -11
-11 -11 -13 0 -39 -25 -39 -38 0 -4 -18 -26 -40 -48 -22 -21 -40 -43 -40 -48
0 -4 -11 -17 -24 -27 -14 -11 -28 -29 -32 -41 -3 -11 -27 -39 -52 -62 -121
-109 -147 -137 -199 -211 -31 -44 -69 -92 -85 -107 -15 -14 -28 -32 -28 -40 0
-8 -20 -39 -46 -69 -95 -114 -151 -165 -189 -175 -15 -4 -30 -15 -32 -24 -7
-26 -57 -21 -61 7 -3 24 58 91 121 133 20 14 39 32 42 40 3 8 21 26 41 39 33
23 146 171 186 242 16 30 72 93 119 135 42 37 133 138 169 188 42 57 143 178
219 262 74 82 125 144 140 172 6 12 18 22 26 22 8 0 15 4 15 8 0 5 34 53 75
108 41 54 90 120 107 147 36 51 52 58 68 26z m-2550 -19 c0 -5 -4 -10 -10 -10
-5 0 -10 5 -10 10 0 6 5 10 10 10 6 0 10 -4 10 -10z m2260 1 c0 -5 -7 -12 -16
-15 -24 -9 -28 -7 -14 9 14 17 30 20 30 6z m293 -262 c-10 -17 -22 -40 -28
-50 -5 -11 -18 -22 -27 -25 -10 -3 -21 -17 -25 -32 -3 -15 -15 -35 -26 -45
-18 -15 -23 -16 -35 -3 -13 13 -11 18 14 40 16 14 32 26 36 26 3 0 9 14 13 30
4 17 12 30 18 30 7 0 25 21 42 47 33 53 49 38 18 -18z m-593 0 c0 -6 -4 -7
-10 -4 -5 3 -10 11 -10 16 0 6 5 7 10 4 6 -3 10 -11 10 -16z m-50 -39 c0 -5
-4 -10 -10 -10 -5 0 -10 5 -10 10 0 6 5 10 10 10 6 0 10 -4 10 -10z m513 -143
c3 -8 -8 -25 -24 -38 -16 -13 -29 -28 -29 -33 0 -15 -42 -56 -57 -56 -25 0
-13 32 33 86 47 54 68 65 77 41z m-463 -77 c0 -5 -4 -10 -10 -10 -5 0 -10 5
-10 10 0 6 5 10 10 10 6 0 10 -4 10 -10z m-67 -62 c-21 -24 -26 -18 -11 14 8
17 15 22 20 15 4 -6 0 -20 -9 -29z m592 -5 c-6 -29 -52 -89 -61 -80 -2 2 10
29 28 60 36 60 44 64 33 20z m-180 7 c4 -6 -5 -22 -19 -36 -14 -15 -28 -35
-31 -46 -9 -26 -31 -16 -27 13 2 23 48 79 63 79 4 0 11 -5 14 -10z m-82 -98
c8 -11 -43 -92 -58 -92 -7 0 -30 -30 -51 -67 -22 -36 -54 -78 -72 -92 -32 -25
-92 -104 -92 -121 0 -4 -8 -6 -17 -4 -13 3 -23 -7 -36 -33 -10 -21 -49 -72
-88 -113 -39 -41 -92 -106 -119 -145 -26 -38 -62 -83 -79 -99 -17 -17 -31 -35
-31 -42 0 -18 -21 -31 -62 -37 -51 -8 -49 7 10 75 69 81 92 111 92 124 0 6 9
19 21 30 12 11 18 26 15 37 -3 13 0 17 10 13 18 -7 84 59 84 83 0 6 15 14 33
19 26 7 32 13 32 35 -1 15 3 27 7 27 11 0 117 109 166 170 21 25 62 75 94 112
31 36 59 75 62 85 9 27 68 54 79 35z m158 -25 c-8 -8 -11 -7 -11 4 0 20 13 34
18 19 3 -7 -1 -17 -7 -23z m-601 3 c0 -5 -9 -19 -20 -30 -11 -11 -20 -22 -20
-25 0 -2 -16 -20 -35 -39 -19 -20 -35 -38 -35 -42 0 -12 -48 -63 -54 -57 -3 3
-9 -3 -13 -13 -4 -10 -18 -31 -32 -47 -14 -16 -38 -47 -54 -70 -15 -23 -45
-61 -67 -85 -45 -47 -48 -56 -22 -72 17 -11 6 -10 -29 5 -18 7 -69 -39 -69
-62 0 -7 -5 -13 -10 -13 -14 0 -59 -51 -60 -67 0 -12 -14 -18 -34 -14 -13 3
-26 -20 -26 -46 0 -13 -6 -23 -14 -23 -17 0 -91 -69 -91 -86 0 -19 -76 -57
-89 -44 -6 6 -14 6 -21 0 -9 -7 -16 -5 -25 5 -11 13 -5 23 31 64 24 27 49 55
55 63 6 7 44 43 84 80 164 150 450 440 450 456 0 5 20 20 45 32 30 15 45 28
45 41 0 10 5 19 12 19 14 0 78 48 77 58 -2 15 1 22 11 22 6 0 10 -4 10 -10z
m553 -54 c-3 -13 -18 -37 -34 -52 -16 -15 -29 -34 -29 -41 0 -8 -5 -11 -10 -8
-11 7 18 63 53 103 25 27 25 27 20 -2z m-2943 -97 c0 -6 -4 -7 -10 -4 -5 3
-10 11 -10 16 0 6 5 7 10 4 6 -3 10 -11 10 -16z m2844 -45 c7 -19 -10 -44 -30
-44 -17 0 -18 14 -2 40 15 24 24 25 32 4z m-67 -80 c-3 -3 -12 -4 -19 -1 -8 3
-5 6 6 6 11 1 17 -2 13 -5z m-30 -31 c4 -12 -36 -25 -50 -16 -12 7 23 35 37
30 5 -2 11 -8 13 -14z m200 -50 c-3 -10 -5 -4 -5 12 0 17 2 24 5 18 2 -7 2
-21 0 -30z m-262 -32 c-8 -17 -20 -31 -25 -31 -15 0 -12 8 12 40 27 37 35 32
13 -9z m227 -46 c-27 -57 -36 -65 -45 -41 -6 15 47 96 62 96 5 0 -3 -25 -17
-55z m-265 -30 c-4 -8 -16 -15 -28 -15 -21 0 -21 0 2 19 26 21 35 20 26 -4z
m223 -47 c0 -6 -13 -22 -29 -38 -23 -21 -27 -30 -18 -39 9 -9 2 -21 -30 -51
-24 -24 -47 -38 -56 -34 -10 3 -23 -8 -38 -33 -13 -21 -42 -61 -65 -89 -23
-29 -44 -58 -47 -65 -3 -11 -10 -9 -26 7 l-22 21 32 34 c18 19 39 46 48 60 22
35 68 89 77 89 15 0 54 52 54 72 0 17 4 19 25 14 20 -5 25 -3 25 14 0 26 35
61 55 54 8 -4 15 -11 15 -16z m-355 -105 c-12 -17 -20 -23 -23 -15 -4 14 28
56 36 47 3 -2 -3 -17 -13 -32z m-2495 -13 c0 -5 -2 -10 -4 -10 -3 0 -8 5 -11
10 -3 6 -1 10 4 10 6 0 11 -4 11 -10z m2970 -30 c0 -5 -4 -10 -10 -10 -5 0
-10 5 -10 10 0 6 5 10 10 10 6 0 10 -4 10 -10z m-41 -52 c-8 -14 -14 -18 -17
-10 -4 13 17 46 25 38 3 -2 -1 -15 -8 -28z m-534 -47 c-3 -12 -11 -21 -16 -21
-5 0 -9 -16 -9 -35 0 -33 -2 -35 -25 -29 -18 4 -27 1 -31 -10 -9 -23 -24 -20
-24 5 0 12 16 36 35 55 19 18 35 37 35 41 0 5 5 14 12 21 17 17 32 -1 23 -27z
m515 -10 c0 -23 -25 -51 -46 -51 -14 0 -19 -23 -15 -74 3 -26 1 -28 -13 -17
-14 11 -16 11 -16 -3 0 -10 -9 -16 -24 -16 -14 0 -28 -5 -32 -11 -4 -7 -10 -7
-16 -1 -14 14 28 82 50 82 10 0 23 14 31 32 29 65 81 103 81 59z m-233 -27
c-3 -3 -12 -4 -19 -1 -8 3 -5 6 6 6 11 1 17 -2 13 -5z m-2547 -45 c0 -5 -4 -9
-10 -9 -5 0 -10 7 -10 16 0 8 5 12 10 9 6 -3 10 -10 10 -16z m1560 -69 c0 -5
-5 -10 -11 -10 -5 0 -7 5 -4 10 3 6 8 10 11 10 2 0 4 -4 4 -10z m-640 -80 c0
-5 -5 -10 -11 -10 -5 0 -7 5 -4 10 3 6 8 10 11 10 2 0 4 -4 4 -10z m1374 -154
c-19 -38 -34 -74 -34 -81 0 -7 -7 -18 -15 -25 -13 -11 -15 -9 -15 13 0 38 28
98 63 134 17 18 32 32 33 30 2 -1 -13 -33 -32 -71z m-1583 49 c87 -3 160 -1
163 4 3 4 31 6 63 4 32 -2 67 -4 78 -4 68 2 189 -1 244 -4 35 -3 72 0 83 6 13
7 23 7 31 0 17 -13 128 -20 150 -9 13 7 24 5 36 -6 22 -20 35 -20 51 -1 20 25
43 17 73 -26 23 -34 30 -38 46 -29 11 5 23 19 26 30 8 26 40 43 65 35 26 -8
26 -58 1 -105 -11 -19 -25 -47 -31 -62 -14 -32 -22 -34 -40 -13 -18 22 -34 18
-58 -14 -19 -26 -27 -29 -64 -27 -24 2 -58 9 -76 17 -31 13 -35 12 -47 -4 -12
-16 -29 -19 -117 -20 -58 0 -110 3 -117 7 -6 4 -17 3 -24 -2 -15 -12 -115 -23
-121 -14 -6 9 -138 8 -153 -1 -7 -4 -21 -2 -32 5 -15 9 -23 10 -32 1 -14 -14
-85 -6 -126 15 -25 12 -35 14 -44 5 -8 -8 -20 -9 -35 -3 -12 5 -49 7 -80 5
-39 -3 -63 0 -78 10 -26 19 -63 19 -82 1 -11 -12 -21 -13 -46 -4 -28 10 -33 9
-50 -12 -15 -18 -21 -20 -33 -10 -8 6 -19 9 -25 5 -7 -4 -10 30 -10 103 l0
110 58 4 c31 2 66 0 77 -5 13 -5 32 -3 55 7 19 8 41 13 49 10 8 -2 85 -7 172
-9z m1428 -66 c-6 -30 -16 -63 -21 -75 -5 -11 -10 -36 -11 -54 -2 -29 -6 -33
-29 -34 -24 -1 -28 2 -28 25 0 15 13 60 30 100 16 41 30 79 30 86 0 14 22 23
33 14 4 -4 2 -32 -4 -62z m-145 29 c-10 -64 -27 -118 -39 -128 -7 -6 -10 -21
-8 -35 5 -23 3 -24 -33 -18 -22 3 -41 7 -43 9 -2 2 15 41 37 86 23 46 43 91
46 101 3 9 14 17 25 17 18 0 20 -5 15 -32z m386 -140 c0 -25 -3 -29 -10 -18
-13 20 -13 50 0 50 6 0 10 -15 10 -32z m50 -138 c0 -5 -2 -10 -4 -10 -3 0 -8
5 -11 10 -3 6 -1 10 4 10 6 0 11 -4 11 -10z m-2320 -10 c0 -5 -4 -10 -10 -10
-5 0 -10 5 -10 10 0 6 5 10 10 10 6 0 10 -4 10 -10z m1320 -10 c0 -5 -4 -10
-10 -10 -5 0 -10 5 -10 10 0 6 5 10 10 10 6 0 10 -4 10 -10z m-683 -46 c9 4
27 -1 41 -10 16 -10 27 -12 31 -6 10 17 123 12 144 -6 15 -14 20 -14 27 -2 7
11 11 12 24 0 14 -11 23 -10 56 5 31 14 43 15 54 6 18 -15 115 -21 143 -8 18
8 27 6 43 -8 13 -12 26 -15 42 -10 13 4 50 11 83 15 33 4 69 10 80 13 50 13
65 12 65 -6 0 -15 -64 -80 -71 -72 -3 3 -18 -8 -33 -24 -16 -16 -33 -28 -40
-25 -6 2 -20 -9 -30 -25 -11 -16 -25 -27 -32 -24 -17 6 -34 -29 -27 -56 7 -29
35 -23 43 9 6 25 6 25 12 3 4 -15 14 -23 28 -23 12 0 18 4 15 10 -9 14 13 40
28 34 7 -2 23 6 37 18 34 31 95 71 155 102 28 15 58 36 67 47 12 14 22 18 33
12 14 -8 13 -12 -5 -36 -12 -15 -28 -27 -36 -27 -8 0 -14 -4 -14 -10 0 -5 -5
-10 -12 -10 -20 0 -79 -51 -72 -63 5 -9 4 -9 -6 0 -10 9 -27 4 -76 -20 -35
-18 -64 -35 -64 -39 0 -12 61 -20 74 -9 7 6 15 9 18 6 11 -12 153 56 180 85
15 17 32 29 37 25 5 -3 26 6 46 19 20 14 57 32 83 42 26 9 59 31 73 47 24 27
28 29 46 16 17 -12 23 -44 11 -53 -2 -2 -30 -21 -63 -44 -33 -22 -72 -52 -87
-67 -16 -14 -28 -23 -28 -20 0 4 -15 -4 -32 -17 -18 -13 -40 -27 -49 -33 -91
-56 -198 -132 -213 -152 -10 -14 -30 -29 -43 -34 -19 -7 -23 -12 -14 -23 14
-16 39 -14 71 5 112 69 359 200 423 224 29 11 47 24 47 34 0 9 9 22 19 28 17
11 21 9 26 -8 4 -12 2 -26 -4 -32 -6 -6 -11 -15 -11 -19 0 -11 23 -6 32 7 5 6
8 5 8 -3 0 -9 3 -10 13 -2 27 24 83 54 107 56 14 2 30 11 35 21 19 33 74 85
85 78 5 -3 17 -19 25 -36 15 -27 14 -29 -4 -29 -10 0 -49 -18 -86 -41 -53 -32
-70 -38 -76 -27 -7 10 -9 10 -9 1 0 -8 -13 -13 -30 -13 -23 0 -30 -5 -30 -19
0 -23 -16 -36 -25 -22 -6 11 -125 -47 -151 -74 -17 -17 -59 -37 -81 -39 -6 -1
-20 -11 -31 -23 -11 -13 -26 -23 -33 -23 -8 0 -29 -13 -47 -30 -18 -16 -37
-30 -41 -30 -18 0 -33 -31 -27 -55 8 -32 30 -32 71 0 18 13 35 21 39 18 3 -4
6 -1 6 5 0 6 7 9 16 5 10 -4 17 1 21 16 6 24 7 25 35 10 18 -10 24 -8 39 12
10 13 19 20 19 15 0 -5 9 -1 20 9 11 10 20 15 20 11 0 -4 15 4 33 18 19 15 39
26 46 26 6 0 19 4 29 9 9 5 52 25 95 46 43 20 110 55 149 76 72 40 112 44 106
11 -2 -8 -21 -27 -44 -41 -22 -14 -58 -37 -79 -51 -22 -13 -45 -25 -53 -26 -7
-1 -28 -14 -47 -28 -18 -14 -40 -23 -49 -20 -9 3 -19 -3 -26 -15 -6 -12 -16
-21 -23 -21 -7 0 -23 -9 -37 -20 -14 -11 -35 -20 -47 -20 -13 0 -27 -10 -34
-22 -15 -29 -30 -39 -48 -33 -8 3 -27 -6 -42 -21 -16 -16 -34 -24 -43 -21 -9
4 -19 0 -23 -7 -5 -8 -17 -15 -27 -17 -28 -6 -44 -35 -30 -56 18 -27 74 -20
101 11 13 15 23 21 25 14 3 -8 18 -4 43 13 22 13 62 35 89 49 34 17 51 31 50
43 -2 14 1 15 11 7 10 -8 26 -5 64 14 27 14 52 30 56 36 3 5 17 10 30 10 13 0
25 4 27 9 3 9 80 55 193 115 22 11 45 26 50 32 6 7 25 14 43 16 24 3 32 1 32
-10 0 -22 -30 -52 -52 -52 -10 0 -18 -5 -18 -10 0 -12 -49 -34 -67 -31 -7 1
-13 -6 -13 -15 0 -11 -6 -15 -19 -11 -13 3 -26 -5 -40 -24 -12 -16 -28 -29
-36 -29 -8 0 -26 -10 -41 -22 -14 -13 -29 -22 -32 -21 -4 1 -14 -4 -22 -11 -8
-7 -30 -18 -47 -26 -18 -7 -33 -17 -33 -22 0 -5 -8 -12 -17 -15 -39 -15 -126
-87 -137 -115 -11 -25 -14 -27 -26 -14 -7 9 -21 16 -32 16 -15 0 -19 -5 -15
-20 6 -23 -9 -26 -48 -8 -16 7 -29 8 -33 2 -4 -5 -21 -14 -39 -20 -26 -10 -35
-9 -44 2 -14 17 -41 18 -56 3 -5 -5 -34 -10 -64 -11 -30 0 -57 -5 -61 -11 -5
-8 -11 -7 -21 1 -22 18 -105 4 -122 -22 -12 -16 -15 -17 -15 -4 0 26 -27 43
-45 28 -11 -9 -19 -9 -28 -2 -10 9 -115 10 -152 2 -5 -1 -12 -2 -15 -1 -23 6
-172 6 -176 0 -3 -5 -28 -6 -57 -3 -29 4 -66 7 -84 8 -17 1 -35 5 -39 9 -11
11 -49 8 -62 -5 -8 -8 -15 -8 -27 2 -13 10 -20 11 -39 0 -18 -9 -28 -9 -45 0
-12 6 -32 11 -44 10 -37 -3 -48 0 -42 10 3 5 -6 12 -20 16 -14 3 -25 10 -25
15 0 15 -40 10 -46 -6 -8 -19 -34 -19 -61 0 -18 13 -33 14 -84 6 -44 -7 -66
-7 -76 0 -7 6 -24 8 -38 5 -15 -4 -37 0 -53 8 -18 9 -34 11 -42 6 -15 -9 -46
-7 -140 8 -30 6 -60 8 -66 5 -7 -2 -15 0 -19 6 -3 6 -17 11 -31 11 -13 0 -24
4 -24 9 0 14 -32 23 -44 11 -13 -13 -46 -13 -46 0 0 6 -13 10 -30 10 -37 0
-62 36 -33 48 11 4 52 43 92 87 41 44 87 86 103 93 16 7 31 20 35 30 8 24 95
112 110 112 7 0 22 18 33 40 11 22 29 46 40 52 11 7 29 41 41 75 24 73 28 75
154 78 50 2 118 4 152 5 34 1 83 -1 108 -4 43 -7 46 -6 56 21 l11 28 24 -28
c16 -19 30 -27 41 -23z m1683 -52 c0 -35 -9 -45 -27 -31 -21 18 -17 59 7 59
15 0 20 -7 20 -28z m-236 -48 c9 -3 16 -12 16 -19 0 -10 -5 -11 -25 -2 -38 18
-31 36 9 21z m346 -81 c0 -17 -41 -54 -52 -46 -5 2 -8 17 -8 32 0 24 4 28 30
29 21 0 30 -4 30 -15z m-2790 -202 c0 -6 -4 -13 -10 -16 -5 -3 -10 1 -10 9 0
9 5 16 10 16 6 0 10 -4 10 -9z m2966 -37 c-9 -8 -20 -12 -26 -9 -5 3 -19 -10
-31 -29 -12 -20 -24 -34 -29 -31 -8 5 -89 -50 -102 -69 -4 -6 -8 -7 -8 -2 0 5
-11 -3 -25 -18 -13 -14 -30 -26 -38 -26 -7 0 -22 -8 -33 -17 -10 -10 -24 -18
-30 -18 -6 0 -36 -23 -67 -52 -57 -52 -82 -60 -101 -30 -9 14 -5 22 18 42 16
14 33 25 37 25 4 0 21 12 38 26 17 14 37 27 43 28 7 1 24 9 38 18 14 8 52 33
85 53 33 21 92 62 131 91 46 35 78 52 88 48 10 -4 16 -1 17 7 1 8 3 6 6 -3 2
-10 -3 -25 -11 -34z m274 12 c0 -3 -4 -8 -10 -11 -5 -3 -10 -1 -10 4 0 6 5 11
10 11 6 0 10 -2 10 -4z m-153 -93 c-12 -28 -27 -30 -27 -5 0 22 5 29 24 29 11
0 12 -5 3 -24z m-52 -35 c-9 -41 -14 -50 -25 -43 -10 6 -134 -63 -161 -90 -9
-8 -23 -15 -32 -15 -11 0 -17 -8 -17 -24 0 -29 -15 -36 -52 -25 -16 4 -30 3
-33 -2 -12 -18 -26 -9 -16 10 12 21 75 61 97 61 8 0 14 6 14 13 1 13 49 52 56
44 3 -2 18 8 35 24 16 15 36 26 44 23 7 -3 28 8 47 25 42 39 51 39 43 -1z
m159 -34 c20 -8 20 -28 1 -44 -18 -15 -29 -7 -40 28 -7 23 6 29 39 16z m-48
-38 c8 -22 -14 -55 -41 -62 -13 -3 -26 -12 -29 -20 -5 -12 -10 -13 -27 -4 -20
11 -20 12 -3 31 9 10 21 19 27 19 5 0 18 11 29 25 22 28 36 32 44 11z m220
-73 c-7 -7 -26 7 -26 19 0 6 6 6 15 -2 9 -7 13 -15 11 -17z m-129 -35 c-3 -8
-6 -5 -6 6 -1 11 2 17 5 13 3 -3 4 -12 1 -19z m-3222 -68 c3 -6 -1 -7 -9 -4
-18 7 -21 14 -7 14 6 0 13 -4 16 -10z m580 -21 c-8 -12 -45 -12 -45 0 0 10 30
20 43 14 4 -3 5 -9 2 -14z m145 -15 c0 -8 -4 -12 -10 -9 -5 3 -10 10 -10 16 0
5 5 9 10 9 6 0 10 -7 10 -16z m-400 -9 c0 -8 -7 -15 -15 -15 -8 0 -15 7 -15
15 0 8 7 15 15 15 8 0 15 -7 15 -15z m1774 -20 c-4 -8 -8 -15 -10 -15 -2 0 -4
7 -4 15 0 8 4 15 10 15 5 0 7 -7 4 -15z m-487 -25 c-4 -27 -17 -38 -17 -13 0
18 8 33 17 33 1 0 2 -9 0 -20z m386 -40 c3 -13 0 -20 -8 -20 -17 0 -28 17 -20
30 10 16 22 12 28 -10z m777 15 c0 -10 -45 -75 -52 -75 -13 0 -9 20 9 51 15
25 43 40 43 24z m-1425 -14 c3 -5 1 -12 -5 -16 -5 -3 -10 1 -10 9 0 18 6 21
15 7z m-901 -20 c21 -18 20 -31 -2 -31 -11 0 -27 -9 -37 -20 -12 -13 -22 -17
-29 -11 -6 5 -29 11 -51 13 -36 3 -40 6 -37 28 1 13 6 27 11 30 18 11 129 4
145 -9z m736 -10 c0 -49 -37 -62 -53 -18 -10 26 3 47 29 47 20 0 24 -5 24 -29z
m1125 9 c-3 -5 -10 -10 -16 -10 -5 0 -9 5 -9 10 0 6 7 10 16 10 8 0 12 -4 9
-10z m-628 -43 c-6 -12 -13 -23 -14 -25 0 -2 -10 2 -21 9 -20 13 -20 13 6 30
34 20 45 15 29 -14z m933 23 c0 -5 -4 -10 -10 -10 -5 0 -10 5 -10 10 0 6 5 10
10 10 6 0 10 -4 10 -10z m-1953 -22 c-3 -8 -6 -5 -6 6 -1 11 2 17 5 13 3 -3 4
-12 1 -19z m243 -9 c22 -30 20 -53 -2 -31 -7 7 -22 12 -35 12 -16 0 -23 6 -23
18 0 42 31 43 60 1z m70 1 c0 -5 -4 -10 -10 -10 -5 0 -10 5 -10 10 0 6 5 10
10 10 6 0 10 -4 10 -10z m460 -11 c0 -24 -23 -21 -28 4 -2 10 3 17 12 17 10 0
16 -9 16 -21z m180 17 c0 -11 -57 -66 -62 -60 -9 9 2 37 20 52 15 12 42 17 42
8z m868 -38 c3 -26 2 -27 -29 -21 -23 4 -34 2 -41 -10 -4 -9 -15 -14 -23 -11
-17 7 -20 34 -4 34 6 0 23 9 37 20 33 27 56 22 60 -12z m-2461 -10 c-3 -8 -6
-5 -6 6 -1 11 2 17 5 13 3 -3 4 -12 1 -19z m1893 13 c0 -6 -4 -13 -10 -16 -5
-3 -10 1 -10 9 0 9 5 16 10 16 6 0 10 -4 10 -9z m-50 -17 c0 -12 -6 -15 -22
-10 -13 3 -29 6 -35 6 -7 0 -13 5 -13 10 0 6 16 10 35 10 26 0 35 -4 35 -16z
m417 -9 c3 -9 3 -19 -1 -22 -8 -9 -37 18 -30 28 8 14 24 11 31 -6z m-1452 -90
c22 1 48 5 57 9 9 4 27 2 40 -5 14 -8 64 -12 138 -12 63 1 119 -1 123 -4 4 -2
81 -6 170 -9 89 -2 198 -6 243 -8 44 -3 86 -1 94 4 8 5 23 2 37 -7 16 -11 27
-12 36 -5 7 5 58 8 122 6 66 -2 121 1 138 8 21 8 34 8 52 -2 18 -10 28 -10 38
-2 17 14 109 2 115 -16 2 -6 -3 -12 -11 -12 -8 0 -17 -7 -21 -15 -3 -8 -15
-15 -26 -15 -11 0 -29 -9 -40 -20 -11 -11 -32 -23 -47 -26 -16 -4 -41 -17 -58
-28 -44 -31 -66 -44 -100 -59 -40 -18 -57 -41 -53 -69 4 -32 49 -28 102 10 23
15 67 40 99 55 32 16 55 32 52 37 -3 4 3 6 13 3 11 -2 32 6 50 22 17 14 32 25
34 24 2 -1 46 19 98 45 61 30 107 46 132 46 21 0 38 5 38 10 0 6 9 10 20 10
11 0 20 -4 20 -10 0 -5 -7 -10 -15 -10 -8 0 -15 -3 -15 -8 0 -4 -36 -31 -80
-60 -44 -29 -80 -58 -80 -63 0 -6 -4 -8 -10 -4 -5 3 -49 -16 -97 -43 -48 -27
-105 -55 -126 -62 -21 -6 -43 -20 -50 -31 -6 -10 -20 -19 -29 -19 -10 0 -18
-6 -18 -14 0 -8 -5 -18 -11 -22 -8 -4 -9 0 -4 15 8 28 -16 28 -33 1 -7 -11
-19 -20 -27 -20 -8 0 -15 -4 -15 -10 0 -5 -7 -10 -15 -10 -8 0 -15 5 -15 10 0
15 -47 12 -54 -2 -3 -9 -8 -8 -16 5 -13 21 -46 22 -54 2 -3 -9 -18 -15 -34
-15 -23 0 -32 6 -42 30 -12 29 -44 60 -62 60 -4 0 -17 -18 -28 -40 -18 -35
-50 -55 -50 -31 0 17 -33 21 -56 6 -13 -8 -32 -15 -43 -15 -11 0 -22 -4 -25
-9 -6 -10 -104 -2 -128 10 -9 5 -19 5 -22 1 -6 -10 -122 -8 -146 1 -14 6 -55
7 -224 6 -39 0 -75 -4 -82 -10 -8 -7 -14 -6 -19 1 -4 7 -22 10 -41 8 -19 -2
-34 -1 -34 2 0 9 -95 28 -100 20 -6 -9 -41 -14 -77 -12 -15 1 -23 8 -23 21 0
28 -47 73 -73 69 -16 -2 -26 -15 -37 -45 -15 -44 -24 -50 -50 -33 -9 5 -19 5
-26 -1 -9 -7 -17 -3 -28 13 -9 12 -16 27 -16 33 0 5 -9 21 -19 34 l-19 24 -13
-21 c-8 -12 -19 -22 -25 -22 -6 0 -16 -11 -22 -24 -14 -31 -82 -42 -89 -15 -7
27 -47 40 -71 23 -31 -21 -39 -1 -46 107 l-6 96 44 17 c25 10 61 35 81 57 28
32 39 38 53 30 10 -5 71 -8 138 -5 279 11 390 11 408 2 13 -7 23 -6 34 6 9 9
20 12 26 7 6 -4 29 -7 51 -6z m1883 -59 c2 -17 0 -26 -7 -22 -5 4 -14 -2 -20
-11 -6 -10 -11 -14 -11 -10 0 4 -9 3 -20 -3 -26 -14 -26 2 0 25 11 10 22 26
26 37 8 27 28 17 32 -16z m172 -34 c0 -32 -27 -92 -41 -92 -12 0 -11 36 2 83
12 45 39 51 39 9z m164 11 c6 -14 -3 -69 -20 -131 -7 -25 -24 -1 -24 35 0 41
20 113 31 113 4 0 10 -8 13 -17z m-459 -52 c-3 -12 -11 -19 -16 -16 -5 4 -12
-1 -15 -9 -7 -18 -24 -22 -24 -6 0 13 51 62 57 56 3 -3 2 -14 -2 -25z m-65
-42 c0 -5 -7 -9 -15 -9 -15 0 -20 12 -9 23 8 8 24 -1 24 -14z m654 -2 c0 -9
-1 -38 -2 -64 -1 -25 -5 -43 -9 -39 -12 12 -10 126 2 123 6 -2 10 -11 9 -20z
m-712 -69 c-7 -7 -12 -8 -12 -2 0 14 12 26 19 19 2 -3 -1 -11 -7 -17z m238 12
c0 -5 -5 -10 -11 -10 -5 0 -7 5 -4 10 3 6 8 10 11 10 2 0 4 -4 4 -10z m321
-21 c-2 -8 -6 -29 -9 -46 -3 -24 -9 -33 -23 -33 -23 0 -26 32 -4 54 8 8 15 22
15 31 0 9 6 15 13 12 6 -2 10 -11 8 -18z m-617 -24 c3 -9 -8 -30 -28 -53 -18
-20 -38 -46 -44 -57 -10 -17 -11 -17 -12 -3 0 9 16 34 35 55 22 24 33 44 29
56 -7 21 12 23 20 2z m246 7 c0 -11 -47 -53 -82 -75 -16 -10 -28 -24 -28 -32
0 -19 -14 -19 -28 -2 -15 18 79 113 102 104 9 -4 16 -2 16 3 0 6 5 10 10 10 6
0 10 -4 10 -8z m-295 -42 c-21 -22 -31 -27 -38 -18 -5 9 -6 5 -2 -8 4 -16 -1
-28 -21 -43 -32 -25 -47 -26 -64 -6 -16 20 3 45 35 45 13 0 25 7 29 15 3 8 14
15 24 15 11 0 25 7 32 15 7 8 17 15 23 15 6 0 -2 -14 -18 -30z m423 -37 c-2
-9 -8 -18 -15 -20 -7 -3 -9 3 -6 16 6 25 26 28 21 4z m-141 -35 c-3 -8 -6 -5
-6 6 -1 11 2 17 5 13 3 -3 4 -12 1 -19z m-2127 -18 c0 -5 -5 -10 -11 -10 -5 0
-7 5 -4 10 3 6 8 10 11 10 2 0 4 -4 4 -10z m2530 -81 c0 -5 -4 -9 -10 -9 -5 0
-10 7 -10 16 0 8 5 12 10 9 6 -3 10 -10 10 -16z m-2640 -13 c0 -8 -4 -18 -10
-21 -5 -3 -10 -4 -10 -1 0 2 -3 11 -6 20 -4 11 -1 16 10 16 9 0 16 -6 16 -14z
m1087 -12 c-3 -3 -12 -4 -19 -1 -8 3 -5 6 6 6 11 1 17 -2 13 -5z m3203 -31 c0
-12 -2 -12 -15 1 -8 8 -15 17 -15 20 0 3 7 3 15 0 8 -4 15 -13 15 -21z m80 17
c0 -5 -7 -10 -16 -10 -8 0 -12 5 -9 10 3 6 10 10 16 10 5 0 9 -4 9 -10z
m-2870 -20 c0 -5 -5 -10 -11 -10 -5 0 -7 5 -4 10 3 6 8 10 11 10 2 0 4 -4 4
-10z m770 -6 c0 -8 -4 -12 -10 -9 -5 3 -10 10 -10 16 0 5 5 9 10 9 6 0 10 -7
10 -16z m1505 6 c3 -5 -1 -10 -9 -10 -9 0 -16 5 -16 10 0 6 4 10 9 10 6 0 13
-4 16 -10z m-3270 -10 c3 -5 2 -10 -4 -10 -5 0 -13 5 -16 10 -3 6 -2 10 4 10
5 0 13 -4 16 -10z m305 -10 c0 -5 -2 -10 -4 -10 -3 0 -8 5 -11 10 -3 6 -1 10
4 10 6 0 11 -4 11 -10z m-163 -82 c-3 -8 -6 -5 -6 6 -1 11 2 17 5 13 3 -3 4
-12 1 -19z m1073 4 c0 -5 -10 -14 -22 -20 l-23 -11 23 0 c28 -1 29 -17 1 -24
-24 -6 -49 1 -49 14 0 5 -4 9 -10 9 -5 0 -10 -7 -10 -15 0 -19 -28 -32 -70
-31 -31 1 -35 4 -38 30 -3 27 -2 28 36 24 30 -2 43 1 51 14 8 13 24 18 61 18
28 0 50 -4 50 -8z m-3280 -27 c0 -1 -6 -8 -14 -14 -11 -9 -15 -7 -19 8 -3 14
0 17 14 14 11 -3 19 -7 19 -8z m1954 -3 c3 -5 19 -7 36 -4 18 3 30 0 30 -7 0
-7 9 -9 25 -5 19 5 25 2 25 -10 0 -19 7 -17 -97 -22 -86 -4 -92 0 -73 37 11
19 44 26 54 11z m616 -5 c8 -2 20 -6 26 -10 7 -4 17 0 24 8 16 19 34 19 51 -1
17 -21 -5 -37 -43 -30 -17 3 -28 0 -32 -9 -8 -21 -27 -18 -33 5 -6 24 -28 26
-49 5 -21 -20 -44 -19 -44 3 0 29 21 43 55 36 16 -3 37 -6 45 -7z m-277 -11
c7 -19 -1 -26 -30 -26 -22 0 -31 19 -16 33 11 12 41 7 46 -7z m-1495 -132
c-10 -10 -28 6 -28 24 0 15 1 15 17 -1 9 -9 14 -19 11 -23z"/>
<path d="M5650 7986 c0 -2 9 -6 20 -9 11 -3 18 -1 14 4 -5 9 -34 13 -34 5z"/>
<path d="M4570 7900 c-14 -11 -40 -22 -58 -26 -22 -4 -37 -15 -47 -35 -8 -15
-23 -34 -34 -41 -21 -15 -39 -122 -22 -133 6 -3 11 -18 11 -33 0 -30 34 -92
50 -92 5 0 19 -9 31 -21 16 -16 23 -18 35 -8 11 9 21 9 38 1 18 -8 28 -7 43 3
10 8 32 15 48 15 19 0 35 7 43 20 7 12 17 18 22 15 14 -9 69 55 77 88 3 16 12
31 19 34 18 7 19 84 2 103 -11 12 -10 12 5 1 14 -11 17 -11 17 3 0 9 -6 16
-13 16 -9 0 -12 9 -9 28 2 16 -2 33 -10 39 -22 18 -145 35 -167 24 -14 -8 -22
-7 -31 4 -16 19 -20 19 -50 -5z"/>
<path d="M3342 6699 c-27 -13 -44 -30 -48 -45 -3 -13 -10 -24 -15 -24 -5 0 -3
-15 5 -33 10 -25 11 -39 3 -52 -7 -14 -7 -20 1 -23 7 -2 12 -12 12 -22 0 -55
34 -77 85 -56 25 11 35 21 35 36 0 13 8 24 19 27 11 3 23 21 31 46 6 23 15 47
20 52 4 6 5 27 2 49 -4 32 -10 40 -38 52 -45 19 -61 18 -112 -7z"/>
<path d="M4897 4763 c-21 -20 18 -83 42 -68 18 11 12 54 -8 65 -23 12 -26 12
-34 3z"/>
<path d="M4690 4662 c0 -22 23 -46 33 -35 13 12 7 32 -13 43 -17 9 -20 8 -20
-8z"/>
<path d="M4730 4486 c0 -9 5 -16 10 -16 6 0 10 4 10 9 0 6 -4 13 -10 16 -5 3
-10 -1 -10 -9z"/>
<path d="M5190 4425 c0 -15 38 -40 47 -31 7 7 -26 46 -39 46 -4 0 -8 -7 -8
-15z"/>
<path d="M5322 4392 c-10 -10 -27 -33 -37 -50 -10 -17 -27 -33 -37 -35 -11 -3
-18 -14 -18 -29 0 -12 -3 -34 -7 -46 l-6 -24 42 21 c22 12 41 25 41 30 0 5 18
26 40 47 45 43 49 63 21 88 -18 17 -20 17 -39 -2z"/>
<path d="M7018 3768 c-8 -22 3 -38 26 -38 27 0 46 18 39 36 -6 17 -59 18 -65
2z"/>
<path d="M6977 3623 c-2 -5 -7 -20 -11 -34 -5 -21 -1 -30 19 -43 33 -22 42
-20 61 9 16 25 16 27 -6 50 -23 24 -54 33 -63 18z"/>
<path d="M7448 3263 c-47 -24 -46 -97 1 -92 9 1 24 -1 34 -6 12 -5 24 -1 37
10 52 47 -9 119 -72 88z m-4 -48 c-4 -8 -8 -15 -10 -15 -2 0 -4 7 -4 15 0 8 4
15 10 15 5 0 7 -7 4 -15z"/>
<path d="M7572 3018 c-7 -7 -12 -23 -12 -37 0 -21 -2 -23 -11 -11 -8 11 -9 9
-4 -10 7 -23 41 -59 57 -60 4 0 17 18 28 39 15 31 18 46 10 65 -10 28 -47 35
-68 14z"/>
<path d="M3071 2472 c-10 -18 -10 -27 0 -38 15 -19 35 -18 43 2 11 28 7 46 -8
41 -8 -3 -16 -1 -19 6 -2 7 -9 2 -16 -11z"/>
<path d="M2801 2417 c-17 -17 -13 -62 7 -80 24 -22 42 -22 42 1 0 12 3 13 8 5
11 -18 52 12 52 37 0 37 -82 64 -109 37z"/>
<path d="M2536 2319 c-16 -38 -8 -64 24 -74 24 -8 70 21 70 45 0 19 -25 50
-40 50 -5 0 -15 3 -24 6 -12 4 -20 -3 -30 -27z"/>
<path d="M2925 2149 c-39 -43 13 -116 60 -85 23 15 32 61 15 80 -18 22 -58 25
-75 5z"/>
<path d="M7811 1913 c-8 -15 -12 -16 -22 -5 -18 17 -46 15 -58 -5 -9 -17 -10
-17 -28 0 -21 18 -43 23 -43 9 0 -5 -23 -9 -51 -10 -28 0 -57 -6 -64 -12 -10
-8 -15 -8 -20 1 -5 7 -21 9 -41 6 -19 -3 -36 -1 -39 4 -9 13 -59 11 -73 -3 -9
-9 -12 -9 -12 0 0 15 -36 16 -45 1 -4 -6 -19 -7 -36 -4 -25 6 -29 4 -29 -15 0
-36 19 -62 37 -51 12 6 24 4 40 -6 14 -9 30 -12 40 -8 10 4 35 7 56 6 25 -2
37 2 37 11 1 10 4 9 13 -2 16 -20 226 -22 250 -2 10 9 17 10 22 2 10 -16 273
-5 317 13 20 8 38 20 42 25 10 16 -21 41 -60 48 -27 5 -38 2 -48 -11 -12 -16
-13 -17 -19 -1 -5 14 -17 16 -62 13 -31 -2 -58 0 -61 4 -9 15 -32 10 -43 -8z"/>
<path d="M3040 1808 c0 -6 -2 -9 -5 -6 -4 3 -25 1 -47 -4 -29 -6 -43 -5 -48 3
-10 15 -90 2 -97 -17 -3 -8 -10 -14 -15 -14 -6 0 -4 7 3 16 12 14 9 16 -21 13
-19 -2 -38 -7 -41 -12 -6 -8 -30 -10 -64 -5 -15 2 -20 -3 -20 -22 0 -21 5 -24
38 -27 21 -1 50 2 64 8 17 6 28 6 32 0 8 -13 282 -12 299 1 8 7 17 7 27 -2 10
-9 19 -9 28 -2 6 6 26 12 42 14 26 3 30 7 30 33 0 27 -4 30 -32 33 -18 2 -33
-1 -33 -6 0 -5 -25 -9 -55 -8 -30 0 -55 4 -55 9 0 4 -7 7 -15 7 -8 0 -15 -5
-15 -12z"/>
<path d="M2112 1619 c-29 -23 -31 -74 -2 -66 10 3 21 0 22 -5 2 -6 13 -8 25
-4 21 7 36 55 24 74 -12 18 -48 19 -69 1z"/>
<path d="M2974 1455 c-4 -10 -14 -13 -29 -9 -32 8 -55 -31 -31 -54 13 -14 19
-14 41 -2 23 12 28 12 35 0 7 -12 14 -12 27 -4 22 14 29 50 13 70 -16 18 -49
18 -56 -1z"/>
<path d="M8253 1454 c-3 -8 -1 -20 5 -26 16 -16 42 -2 42 22 0 24 -38 28 -47
4z"/>
<path d="M6426 1341 c-11 -12 -25 -17 -38 -13 -16 4 -20 2 -15 -10 3 -10 -3
-19 -19 -27 -33 -15 -30 -31 6 -31 23 0 31 5 36 25 8 31 21 32 35 2 9 -20 19
-24 56 -25 29 0 46 5 50 14 6 16 39 13 72 -8 18 -11 23 -11 30 1 7 10 21 12
55 7 42 -7 47 -5 55 16 l8 22 14 -22 c15 -23 43 -29 54 -12 5 8 11 8 20 0 9
-8 15 -8 20 0 4 7 11 5 21 -5 19 -19 34 -19 62 1 20 14 23 14 28 0 9 -24 23
-19 30 9 8 31 13 31 42 0 22 -23 25 -24 53 -10 17 9 29 11 29 5 0 -6 27 -10
65 -10 50 0 66 4 74 18 7 11 13 13 18 6 14 -18 42 -24 55 -10 10 10 17 10 40
-2 23 -11 32 -11 44 -1 13 10 17 10 24 -1 7 -11 14 -12 36 -2 22 11 29 10 43
-2 15 -14 19 -14 40 0 18 13 27 14 52 4 21 -9 33 -9 42 -2 7 6 22 9 33 6 23
-6 50 19 39 36 -4 6 -20 8 -39 4 -23 -4 -38 -1 -49 10 -9 9 -18 12 -21 7 -10
-16 -55 -19 -61 -3 -3 10 -9 11 -18 5 -6 -5 -68 -9 -137 -8 -69 2 -130 -2
-137 -7 -7 -5 -14 -5 -18 2 -10 15 -71 12 -85 -5 -12 -14 -15 -13 -32 5 -22
23 -20 23 -51 9 -18 -8 -39 -8 -73 -1 -27 6 -53 7 -59 2 -5 -4 -49 -6 -97 -4
-55 2 -88 0 -88 -6 0 -6 -9 -10 -20 -10 -11 0 -20 5 -20 11 0 6 -9 9 -20 6
-11 -3 -22 -2 -24 2 -7 11 -59 5 -96 -12 -30 -14 -36 -14 -46 -1 -13 17 -40
19 -49 3 -5 -7 -15 -3 -29 10 -22 21 -23 21 -40 2z"/>
<path d="M6222 1334 c-25 -17 -25 -62 0 -78 13 -8 21 -6 36 7 14 13 21 14 30
5 17 -17 34 3 39 43 3 29 1 31 -24 26 -15 -3 -35 -1 -44 3 -10 6 -23 4 -37 -6z"/>
<path d="M5950 1325 c0 -18 -12 -19 -27 -4 -14 14 -47 3 -37 -12 5 -8 1 -8
-14 0 -34 18 -123 14 -138 -6 -13 -17 -13 -17 -14 0 0 12 -8 17 -29 17 -17 0
-33 -4 -36 -10 -4 -6 -13 -5 -24 2 -25 15 -51 3 -51 -24 -1 -23 -1 -23 -23 5
-22 26 -46 34 -61 20 -4 -5 -30 -8 -58 -8 -54 0 -77 -17 -65 -49 9 -22 67 -22
67 1 0 14 3 13 23 -5 28 -26 42 -28 33 -6 -5 14 -4 15 9 4 9 -8 24 -10 42 -4
16 4 34 6 42 5 8 -1 17 3 22 10 6 10 13 9 33 -4 31 -21 50 -21 66 -2 10 12 15
12 35 -1 33 -21 30 -22 59 5 21 20 26 21 26 8 0 -20 35 -23 44 -4 5 10 7 10
12 0 3 -7 12 -13 20 -13 8 0 14 6 14 13 0 8 3 7 10 -3 7 -12 11 -10 18 10 l9
24 12 -22 c13 -25 51 -30 51 -7 0 19 10 19 39 -2 22 -15 25 -15 37 1 10 14 16
15 33 6 15 -8 27 -8 41 0 24 13 25 20 6 45 -12 16 -16 17 -30 6 -14 -11 -16
-11 -16 3 0 18 -44 23 -55 6 -4 -6 -15 -5 -30 2 -18 8 -28 8 -39 -1 -10 -8
-16 -9 -21 -1 -9 15 -35 12 -35 -5z m217 -30 c0 -8 -4 -12 -9 -9 -5 3 -6 10
-3 15 9 13 12 11 12 -6z m-302 -5 c3 -5 1 -10 -4 -10 -6 0 -11 5 -11 10 0 6 2
10 4 10 3 0 8 -4 11 -10z m-180 -20 c3 -5 1 -10 -4 -10 -6 0 -11 5 -11 10 0 6
2 10 4 10 3 0 8 -4 11 -10z"/>
<path d="M5267 1304 c-3 -3 -48 -7 -99 -8 -83 -1 -93 -3 -96 -20 -2 -11 4 -26
14 -33 21 -16 97 -17 125 -3 14 8 19 7 19 -2 0 -9 3 -9 10 2 7 11 10 11 10 2
0 -10 12 -12 48 -8 26 2 48 5 50 5 1 1 2 12 2 26 0 18 -7 28 -26 35 -29 11
-48 13 -57 4z"/>
<path d="M7780 1301 c0 -5 5 -13 10 -16 6 -3 10 -2 10 4 0 5 -4 13 -10 16 -5
3 -10 2 -10 -4z"/>
<path d="M5005 1291 c-3 -5 -21 -7 -40 -4 -19 3 -35 1 -35 -4 0 -5 -16 -7 -37
-5 -30 4 -35 2 -30 -12 5 -14 3 -15 -12 -6 -11 5 -21 15 -23 21 -3 9 -15 9
-43 3 -29 -7 -41 -15 -43 -31 -3 -22 25 -40 40 -25 5 5 29 7 52 5 26 -3 46 -1
50 6 5 8 17 7 42 -4 24 -10 42 -12 53 -6 9 5 23 6 31 1 8 -4 25 -4 38 1 20 8
21 11 11 31 -18 35 -42 47 -54 29z"/>
<path d="M4562 1269 c-12 -14 -18 -15 -23 -7 -5 7 -11 9 -14 6 -11 -11 5 -28
25 -28 10 0 26 -7 34 -16 11 -10 23 -13 38 -8 13 4 35 7 49 5 27 -2 42 11 53
47 6 19 4 22 -17 22 -14 0 -27 -6 -30 -12 -3 -10 -7 -10 -18 -1 -22 18 -79 13
-97 -8z"/>
</g>
</svg>
